{
  "version": "1.1.6",
  "modules": [
    {
      "id": 1,
      "plugin": "Core",
      "version": "1.1.6",
      "model": "AudioInterface",
      "params": [],
      "leftModuleId": 230,
      "rightModuleId": 277,
      "data": {
        "audio": {
          "driver": 5,
          "deviceName": "Burr-Brown from TI              : USB Audio CODEC ",
          "offset": 0,
          "maxChannels": 8,
          "sampleRate": 44100,
          "blockSize": 256
        }
      },
      "pos": [
        136,
        0
      ]
    },
    {
      "id": 228,
      "plugin": "MindMeldModular",
      "version": "1.1.12",
      "model": "MixMasterJr",
      "params": [
        {
          "id": 0,
          "value": 1.0
        },
        {
          "id": 1,
          "value": 1.0
        },
        {
          "id": 2,
          "value": 1.0
        },
        {
          "id": 3,
          "value": 1.0
        },
        {
          "id": 4,
          "value": 1.0
        },
        {
          "id": 5,
          "value": 1.0
        },
        {
          "id": 6,
          "value": 1.0
        },
        {
          "id": 7,
          "value": 1.0
        },
        {
          "id": 8,
          "value": 1.0
        },
        {
          "id": 9,
          "value": 1.0
        },
        {
          "id": 10,
          "value": 0.5
        },
        {
          "id": 11,
          "value": 0.5
        },
        {
          "id": 12,
          "value": 0.5
        },
        {
          "id": 13,
          "value": 0.5
        },
        {
          "id": 14,
          "value": 0.5
        },
        {
          "id": 15,
          "value": 0.5
        },
        {
          "id": 16,
          "value": 0.5
        },
        {
          "id": 17,
          "value": 0.5
        },
        {
          "id": 18,
          "value": 0.5
        },
        {
          "id": 19,
          "value": 0.5
        },
        {
          "id": 20,
          "value": 0.0
        },
        {
          "id": 21,
          "value": 0.0
        },
        {
          "id": 22,
          "value": 0.0
        },
        {
          "id": 23,
          "value": 0.0
        },
        {
          "id": 24,
          "value": 0.0
        },
        {
          "id": 25,
          "value": 0.0
        },
        {
          "id": 26,
          "value": 0.0
        },
        {
          "id": 27,
          "value": 0.0
        },
        {
          "id": 28,
          "value": 0.0
        },
        {
          "id": 29,
          "value": 0.0
        },
        {
          "id": 30,
          "value": 0.0
        },
        {
          "id": 31,
          "value": 0.0
        },
        {
          "id": 32,
          "value": 0.0
        },
        {
          "id": 33,
          "value": 0.0
        },
        {
          "id": 34,
          "value": 0.0
        },
        {
          "id": 35,
          "value": 0.0
        },
        {
          "id": 36,
          "value": 0.0
        },
        {
          "id": 37,
          "value": 0.0
        },
        {
          "id": 38,
          "value": 0.0
        },
        {
          "id": 39,
          "value": 0.0
        },
        {
          "id": 40,
          "value": 0.0
        },
        {
          "id": 41,
          "value": 1.0
        },
        {
          "id": 42,
          "value": 0.0
        },
        {
          "id": 43,
          "value": 1.0
        },
        {
          "id": 44,
          "value": 0.0
        },
        {
          "id": 45,
          "value": 0.0
        },
        {
          "id": 46,
          "value": 0.0
        },
        {
          "id": 47,
          "value": 0.0
        },
        {
          "id": 48,
          "value": 0.0
        },
        {
          "id": 49,
          "value": 0.0
        },
        {
          "id": 50,
          "value": 0.0
        },
        {
          "id": 51,
          "value": 0.0
        },
        {
          "id": 52,
          "value": 13.0
        },
        {
          "id": 53,
          "value": 13.0
        },
        {
          "id": 54,
          "value": 13.0
        },
        {
          "id": 55,
          "value": 13.0
        },
        {
          "id": 56,
          "value": 13.0
        },
        {
          "id": 57,
          "value": 13.0
        },
        {
          "id": 58,
          "value": 13.0
        },
        {
          "id": 59,
          "value": 13.0
        },
        {
          "id": 60,
          "value": 20010.0
        },
        {
          "id": 61,
          "value": 20010.0
        },
        {
          "id": 62,
          "value": 20010.0
        },
        {
          "id": 63,
          "value": 20010.0
        },
        {
          "id": 64,
          "value": 20010.0
        },
        {
          "id": 65,
          "value": 20010.0
        },
        {
          "id": 66,
          "value": 20010.0
        },
        {
          "id": 67,
          "value": 20010.0
        },
        {
          "id": 68,
          "value": 13.0
        },
        {
          "id": 69,
          "value": 13.0
        },
        {
          "id": 70,
          "value": 20010.0
        },
        {
          "id": 71,
          "value": 20010.0
        }
      ],
      "leftModuleId": 231,
      "rightModuleId": 229,
      "data": {
        "trackLabels": "-01--02--03--04--05--06--07--08-GRP1GRP2",
        "panLawMono": 1,
        "panLawStereo": 1,
        "directOutsMode": 3,
        "directOutsSkipGroupedTracks": 0,
        "auxSendsMode": 3,
        "groupsControlTrackSendLevels": 0,
        "auxReturnsMutedWhenMainSolo": 0,
        "auxReturnsSolosMuteDry": 0,
        "chainMode": 0,
        "colorAndCloak": 117440512,
        "symmetricalFade": false,
        "fadeCvOutsWithVolCv": false,
        "linkBitMask": 0,
        "filterPos": 1,
        "groupedAuxReturnFeedbackProtection": 1,
        "ecoMode": 65535,
        "faders": [
          1.0,
          1.0,
          1.0,
          1.0,
          1.0,
          1.0,
          1.0,
          1.0,
          1.0,
          1.0
        ],
        "momentaryCvButtons": 1,
        "masterFaderScalesSends": 0,
        "linearVolCvInputs": 0,
        "id_t0_gainAdjust": 1.0,
        "id_t0_fadeRate": 0.0,
        "id_t0_fadeProfile": 0.0,
        "id_t0_directOutsMode": 3,
        "id_t0_auxSendsMode": 3,
        "id_t0_panLawStereo": 1,
        "id_t0_vuColorThemeLocal": 0,
        "id_t0_filterPos": 1,
        "id_t0_dispColorLocal": 0,
        "id_t0_polyStereo": 0,
        "id_t0_panCvLevel": 1.0,
        "id_t0_stereoWidth": 1.0,
        "id_t0_invertInput": 0,
        "id_t1_gainAdjust": 1.0,
        "id_t1_fadeRate": 0.0,
        "id_t1_fadeProfile": 0.0,
        "id_t1_directOutsMode": 3,
        "id_t1_auxSendsMode": 3,
        "id_t1_panLawStereo": 1,
        "id_t1_vuColorThemeLocal": 0,
        "id_t1_filterPos": 1,
        "id_t1_dispColorLocal": 0,
        "id_t1_polyStereo": 0,
        "id_t1_panCvLevel": 1.0,
        "id_t1_stereoWidth": 1.0,
        "id_t1_invertInput": 0,
        "id_t2_gainAdjust": 1.0,
        "id_t2_fadeRate": 0.0,
        "id_t2_fadeProfile": 0.0,
        "id_t2_directOutsMode": 3,
        "id_t2_auxSendsMode": 3,
        "id_t2_panLawStereo": 1,
        "id_t2_vuColorThemeLocal": 0,
        "id_t2_filterPos": 1,
        "id_t2_dispColorLocal": 0,
        "id_t2_polyStereo": 0,
        "id_t2_panCvLevel": 1.0,
        "id_t2_stereoWidth": 1.0,
        "id_t2_invertInput": 0,
        "id_t3_gainAdjust": 1.0,
        "id_t3_fadeRate": 0.0,
        "id_t3_fadeProfile": 0.0,
        "id_t3_directOutsMode": 3,
        "id_t3_auxSendsMode": 3,
        "id_t3_panLawStereo": 1,
        "id_t3_vuColorThemeLocal": 0,
        "id_t3_filterPos": 1,
        "id_t3_dispColorLocal": 0,
        "id_t3_polyStereo": 0,
        "id_t3_panCvLevel": 1.0,
        "id_t3_stereoWidth": 1.0,
        "id_t3_invertInput": 0,
        "id_t4_gainAdjust": 1.0,
        "id_t4_fadeRate": 0.0,
        "id_t4_fadeProfile": 0.0,
        "id_t4_directOutsMode": 3,
        "id_t4_auxSendsMode": 3,
        "id_t4_panLawStereo": 1,
        "id_t4_vuColorThemeLocal": 0,
        "id_t4_filterPos": 1,
        "id_t4_dispColorLocal": 0,
        "id_t4_polyStereo": 0,
        "id_t4_panCvLevel": 1.0,
        "id_t4_stereoWidth": 1.0,
        "id_t4_invertInput": 0,
        "id_t5_gainAdjust": 1.0,
        "id_t5_fadeRate": 0.0,
        "id_t5_fadeProfile": 0.0,
        "id_t5_directOutsMode": 3,
        "id_t5_auxSendsMode": 3,
        "id_t5_panLawStereo": 1,
        "id_t5_vuColorThemeLocal": 0,
        "id_t5_filterPos": 1,
        "id_t5_dispColorLocal": 0,
        "id_t5_polyStereo": 0,
        "id_t5_panCvLevel": 1.0,
        "id_t5_stereoWidth": 1.0,
        "id_t5_invertInput": 0,
        "id_t6_gainAdjust": 1.0,
        "id_t6_fadeRate": 0.0,
        "id_t6_fadeProfile": 0.0,
        "id_t6_directOutsMode": 3,
        "id_t6_auxSendsMode": 3,
        "id_t6_panLawStereo": 1,
        "id_t6_vuColorThemeLocal": 0,
        "id_t6_filterPos": 1,
        "id_t6_dispColorLocal": 0,
        "id_t6_polyStereo": 0,
        "id_t6_panCvLevel": 1.0,
        "id_t6_stereoWidth": 1.0,
        "id_t6_invertInput": 0,
        "id_t7_gainAdjust": 1.0,
        "id_t7_fadeRate": 0.0,
        "id_t7_fadeProfile": 0.0,
        "id_t7_directOutsMode": 3,
        "id_t7_auxSendsMode": 3,
        "id_t7_panLawStereo": 1,
        "id_t7_vuColorThemeLocal": 0,
        "id_t7_filterPos": 1,
        "id_t7_dispColorLocal": 0,
        "id_t7_polyStereo": 0,
        "id_t7_panCvLevel": 1.0,
        "id_t7_stereoWidth": 1.0,
        "id_t7_invertInput": 0,
        "id_g0_fadeRate": 0.0,
        "id_g0_fadeProfile": 0.0,
        "id_g0_directOutsMode": 3,
        "id_g0_auxSendsMode": 3,
        "id_g0_panLawStereo": 1,
        "id_g0_vuColorThemeLocal": 0,
        "id_g0_filterPos": 1,
        "id_g0_dispColorLocal": 0,
        "id_g0_panCvLevel": 1.0,
        "id_g0_stereoWidth": 1.0,
        "id_g1_fadeRate": 0.0,
        "id_g1_fadeProfile": 0.0,
        "id_g1_directOutsMode": 3,
        "id_g1_auxSendsMode": 3,
        "id_g1_panLawStereo": 1,
        "id_g1_vuColorThemeLocal": 0,
        "id_g1_filterPos": 1,
        "id_g1_dispColorLocal": 0,
        "id_g1_panCvLevel": 1.0,
        "id_g1_stereoWidth": 1.0,
        "dcBlock": false,
        "clipping": 0,
        "fadeRate": 0.0,
        "fadeProfile": 0.0,
        "vuColorThemeLocal": 0,
        "dispColorLocal": 0,
        "chainOnly": 0,
        "dimGain": 0.251190007,
        "masterLabel": "MASTER"
      },
      "pos": [
        58,
        0
      ]
    },
    {
      "id": 229,
      "plugin": "MindMeldModular",
      "version": "1.1.12",
      "model": "AuxExpanderJr",
      "params": [
        {
          "id": 0,
          "value": 0.236999959
        },
        {
          "id": 1,
          "value": 0.0
        },
        {
          "id": 2,
          "value": 0.0
        },
        {
          "id": 3,
          "value": 0.0
        },
        {
          "id": 4,
          "value": 0.304499745
        },
        {
          "id": 5,
          "value": 0.0
        },
        {
          "id": 6,
          "value": 0.0
        },
        {
          "id": 7,
          "value": 0.0
        },
        {
          "id": 8,
          "value": 0.0
        },
        {
          "id": 9,
          "value": 0.0
        },
        {
          "id": 10,
          "value": 0.0
        },
        {
          "id": 11,
          "value": 0.0
        },
        {
          "id": 12,
          "value": 0.0
        },
        {
          "id": 13,
          "value": 0.0
        },
        {
          "id": 14,
          "value": 0.0
        },
        {
          "id": 15,
          "value": 0.0
        },
        {
          "id": 16,
          "value": 0.0
        },
        {
          "id": 17,
          "value": 0.0
        },
        {
          "id": 18,
          "value": 0.0
        },
        {
          "id": 19,
          "value": 0.0
        },
        {
          "id": 20,
          "value": 0.0
        },
        {
          "id": 21,
          "value": 0.0
        },
        {
          "id": 22,
          "value": 0.0
        },
        {
          "id": 23,
          "value": 0.0
        },
        {
          "id": 24,
          "value": 0.0
        },
        {
          "id": 25,
          "value": 0.0
        },
        {
          "id": 26,
          "value": 0.0
        },
        {
          "id": 27,
          "value": 0.0
        },
        {
          "id": 28,
          "value": 0.0
        },
        {
          "id": 29,
          "value": 0.0
        },
        {
          "id": 30,
          "value": 0.0
        },
        {
          "id": 31,
          "value": 0.0
        },
        {
          "id": 32,
          "value": 0.0
        },
        {
          "id": 33,
          "value": 0.0
        },
        {
          "id": 34,
          "value": 0.0
        },
        {
          "id": 35,
          "value": 0.0
        },
        {
          "id": 36,
          "value": 0.0
        },
        {
          "id": 37,
          "value": 0.0
        },
        {
          "id": 38,
          "value": 0.0
        },
        {
          "id": 39,
          "value": 0.0
        },
        {
          "id": 40,
          "value": 0.0
        },
        {
          "id": 41,
          "value": 0.0
        },
        {
          "id": 42,
          "value": 0.0
        },
        {
          "id": 43,
          "value": 0.0
        },
        {
          "id": 44,
          "value": 0.0
        },
        {
          "id": 45,
          "value": 0.0
        },
        {
          "id": 46,
          "value": 0.0
        },
        {
          "id": 47,
          "value": 0.0
        },
        {
          "id": 48,
          "value": 0.0
        },
        {
          "id": 49,
          "value": 0.0
        },
        {
          "id": 50,
          "value": 0.0
        },
        {
          "id": 51,
          "value": 0.0
        },
        {
          "id": 52,
          "value": 0.0
        },
        {
          "id": 53,
          "value": 0.0
        },
        {
          "id": 54,
          "value": 0.0
        },
        {
          "id": 55,
          "value": 0.0
        },
        {
          "id": 56,
          "value": 0.0
        },
        {
          "id": 57,
          "value": 0.0
        },
        {
          "id": 58,
          "value": 0.0
        },
        {
          "id": 59,
          "value": 0.0
        },
        {
          "id": 60,
          "value": 0.0
        },
        {
          "id": 61,
          "value": 0.0
        },
        {
          "id": 62,
          "value": 1.0
        },
        {
          "id": 63,
          "value": 1.0
        },
        {
          "id": 64,
          "value": 1.0
        },
        {
          "id": 65,
          "value": 1.0
        },
        {
          "id": 66,
          "value": 0.5
        },
        {
          "id": 67,
          "value": 0.5
        },
        {
          "id": 68,
          "value": 0.5
        },
        {
          "id": 69,
          "value": 0.5
        },
        {
          "id": 70,
          "value": 1.0
        },
        {
          "id": 71,
          "value": 1.0
        },
        {
          "id": 72,
          "value": 1.0
        },
        {
          "id": 73,
          "value": 1.0
        }
      ],
      "leftModuleId": 228,
      "rightModuleId": 230,
      "data": {
        "directOutsModeLocal": 50529027,
        "panLawStereoLocal": 16843009,
        "vuColorThemeLocal": 0,
        "dispColorAuxLocal": [
          0,
          0,
          0,
          0
        ],
        "auxFadeRatesAndProfiles": [
          0.0,
          0.0,
          0.0,
          0.0,
          0.0,
          0.0,
          0.0,
          0.0
        ],
        "auxLabels": "VERBAUXBAUXCAUXD",
        "id_x0_hpfCutoffFreq": 13.0,
        "id_x0_lpfCutoffFreq": 20010.0,
        "id_x0_stereoWidth": 1.0,
        "id_x1_hpfCutoffFreq": 13.0,
        "id_x1_lpfCutoffFreq": 20010.0,
        "id_x1_stereoWidth": 1.0,
        "id_x2_hpfCutoffFreq": 13.0,
        "id_x2_lpfCutoffFreq": 20010.0,
        "id_x2_stereoWidth": 1.0,
        "id_x3_hpfCutoffFreq": 13.0,
        "id_x3_lpfCutoffFreq": 20010.0,
        "id_x3_stereoWidth": 1.0,
        "panCvLevels": [
          1.0,
          1.0,
          1.0,
          1.0
        ]
      },
      "pos": [
        94,
        0
      ]
    },
    {
      "id": 230,
      "plugin": "Valley",
      "version": "1.1.7",
      "model": "Plateau",
      "params": [
        {
          "id": 0,
          "value": 0.0
        },
        {
          "id": 1,
          "value": 1.0
        },
        {
          "id": 2,
          "value": 0.0
        },
        {
          "id": 3,
          "value": 8.14000034
        },
        {
          "id": 4,
          "value": 10.0
        },
        {
          "id": 5,
          "value": 0.5
        },
        {
          "id": 6,
          "value": 10.0
        },
        {
          "id": 7,
          "value": 0.447361857
        },
        {
          "id": 8,
          "value": 10.0
        },
        {
          "id": 9,
          "value": 6.96999693
        },
        {
          "id": 10,
          "value": 0.0
        },
        {
          "id": 11,
          "value": 0.5
        },
        {
          "id": 12,
          "value": 5.87600136
        },
        {
          "id": 13,
          "value": 0.0
        },
        {
          "id": 14,
          "value": 0.0
        },
        {
          "id": 15,
          "value": 0.0
        },
        {
          "id": 16,
          "value": 0.0
        },
        {
          "id": 17,
          "value": 0.0
        },
        {
          "id": 18,
          "value": 0.0
        },
        {
          "id": 19,
          "value": 0.0
        },
        {
          "id": 20,
          "value": 0.0
        },
        {
          "id": 21,
          "value": 0.0
        },
        {
          "id": 22,
          "value": 0.0
        },
        {
          "id": 23,
          "value": 0.0
        },
        {
          "id": 24,
          "value": 0.0
        },
        {
          "id": 25,
          "value": 0.0
        },
        {
          "id": 26,
          "value": 0.0
        },
        {
          "id": 27,
          "value": 0.0
        },
        {
          "id": 28,
          "value": 0.0
        },
        {
          "id": 29,
          "value": 0.0
        },
        {
          "id": 30,
          "value": 1.0
        }
      ],
      "leftModuleId": 229,
      "rightModuleId": 1,
      "data": {
        "frozen": false,
        "freezeToggle": false,
        "panelStyle": 0,
        "tuned": 0,
        "diffuseInput": 1,
        "preDelayCVSens": 0,
        "inputSensitivity": 0,
        "outputSaturation": 0
      },
      "pos": [
        124,
        0
      ]
    },
    {
      "id": 231,
      "plugin": "ImpromptuModular",
      "version": "1.1.10",
      "model": "Clocked",
      "params": [
        {
          "id": 0,
          "value": 110.0
        },
        {
          "id": 1,
          "value": -17.0
        },
        {
          "id": 2,
          "value": 5.0
        },
        {
          "id": 3,
          "value": 0.0
        },
        {
          "id": 4,
          "value": 0.0
        },
        {
          "id": 5,
          "value": 0.0
        },
        {
          "id": 6,
          "value": 0.0
        },
        {
          "id": 7,
          "value": 0.0
        },
        {
          "id": 8,
          "value": 0.5
        },
        {
          "id": 9,
          "value": 0.5
        },
        {
          "id": 10,
          "value": 0.5
        },
        {
          "id": 11,
          "value": 0.5
        },
        {
          "id": 12,
          "value": 0.0
        },
        {
          "id": 13,
          "value": 0.0
        },
        {
          "id": 14,
          "value": 0.0
        },
        {
          "id": 15,
          "value": 0.0
        },
        {
          "id": 16,
          "value": 0.0
        },
        {
          "id": 17,
          "value": 0.0
        },
        {
          "id": 18,
          "value": 0.0
        },
        {
          "id": 19,
          "value": 0.0
        }
      ],
      "leftModuleId": 234,
      "rightModuleId": 228,
      "data": {
        "panelTheme": 1,
        "running": true,
        "displayDelayNoteMode": true,
        "bpmDetectionMode": false,
        "resetOnStartStop": 0,
        "ppqn": 4,
        "resetClockOutputsHigh": true,
        "momentaryRunInput": true,
        "clockMaster": false
      },
      "pos": [
        38,
        0
      ]
    },
    {
      "id": 232,
      "plugin": "Core",
      "version": "1.1.6",
      "model": "MIDIToCVInterface",
      "params": [],
      "leftModuleId": 306,
      "rightModuleId": 233,
      "data": {
        "channels": 8,
        "polyMode": 0,
        "clockDivision": 24,
        "lastPitch": 8192,
        "lastMod": 0,
        "midi": {
          "driver": 1,
          "deviceName": "V25 Out",
          "channel": -1
        }
      },
      "pos": [
        10,
        0
      ]
    },
    {
      "id": 233,
      "plugin": "Core",
      "version": "1.1.6",
      "model": "MIDICCToCVInterface",
      "params": [],
      "leftModuleId": 232,
      "rightModuleId": 234,
      "data": {
        "ccs": [
          20,
          21,
          22,
          23,
          4,
          1,
          48,
          49,
          8,
          9,
          50,
          51,
          12,
          13,
          14,
          15
        ],
        "values": [
          0,
          72,
          0,
          0,
          0,
          0,
          0,
          0,
          0,
          0,
          0,
          0,
          0,
          0,
          0,
          0,
          0,
          0,
          0,
          0,
          0,
          0,
          59,
          66,
          0,
          0,
          0,
          0,
          0,
          0,
          0,
          0,
          0,
          0,
          0,
          0,
          0,
          0,
          0,
          0,
          0,
          0,
          0,
          0,
          0,
          0,
          0,
          0,
          0,
          0,
          0,
          0,
          0,
          0,
          0,
          0,
          0,
          0,
          0,
          0,
          0,
          0,
          0,
          0,
          0,
          0,
          0,
          0,
          0,
          0,
          0,
          0,
          0,
          0,
          0,
          0,
          0,
          0,
          0,
          0,
          0,
          0,
          0,
          0,
          0,
          0,
          0,
          0,
          0,
          0,
          0,
          0,
          0,
          0,
          0,
          0,
          0,
          0,
          0,
          0,
          0,
          0,
          0,
          0,
          0,
          0,
          0,
          0,
          0,
          0,
          0,
          0,
          0,
          0,
          0,
          0,
          0,
          0,
          0,
          0,
          0,
          0,
          0,
          0,
          0,
          0,
          0,
          0
        ],
        "midi": {
          "driver": 1,
          "deviceName": "V25 Out",
          "channel": -1
        }
      },
      "pos": [
        18,
        0
      ]
    },
    {
      "id": 234,
      "plugin": "Core",
      "version": "1.1.6",
      "model": "MIDITriggerToCVInterface",
      "params": [],
      "leftModuleId": 233,
      "rightModuleId": 231,
      "data": {
        "notes": [
          49,
          41,
          42,
          46,
          36,
          37,
          38,
          39,
          40,
          41,
          42,
          43,
          36,
          37,
          38,
          39
        ],
        "velocity": false,
        "midi": {
          "driver": 1,
          "deviceName": "V25 Out",
          "channel": -1
        }
      },
      "pos": [
        28,
        0
      ]
    },
    {
      "id": 277,
      "plugin": "VCV-Recorder",
      "version": "1.1.0",
      "model": "Recorder",
      "params": [
        {
          "id": 0,
          "value": 1.0
        },
        {
          "id": 1,
          "value": 0.0
        }
      ],
      "leftModuleId": 1,
      "data": {
        "format": "wav",
        "path": "/Users/carnold/Downloads/Music/VCV Patches/Recordings/Arpeggios.wav",
        "incrementPath": true,
        "sampleRate": 44100,
        "depth": 16,
        "bitRate": 256000,
        "videoBitRate": 2048000
      },
      "pos": [
        146,
        0
      ]
    },
    {
      "id": 281,
      "plugin": "Instruo",
      "version": "1.1.0",
      "model": "harmonaig",
      "params": [
        {
          "id": 0,
          "value": 1.0
        },
        {
          "id": 1,
          "value": 0.0
        },
        {
          "id": 2,
          "value": 1.0
        },
        {
          "id": 3,
          "value": 0.0
        },
        {
          "id": 4,
          "value": 1.0
        },
        {
          "id": 5,
          "value": 1.0
        },
        {
          "id": 6,
          "value": 0.0
        },
        {
          "id": 7,
          "value": 1.0
        },
        {
          "id": 8,
          "value": 0.0
        },
        {
          "id": 9,
          "value": 1.0
        },
        {
          "id": 10,
          "value": 0.0
        },
        {
          "id": 11,
          "value": 1.0
        },
        {
          "id": 12,
          "value": 5.57480288
        },
        {
          "id": 13,
          "value": 0.0
        },
        {
          "id": 14,
          "value": 0.0540055484
        },
        {
          "id": 15,
          "value": 1.10000002
        },
        {
          "id": 16,
          "value": 0.0
        },
        {
          "id": 17,
          "value": 0.0
        },
        {
          "id": 18,
          "value": 0.0
        },
        {
          "id": 19,
          "value": 0.0
        },
        {
          "id": 20,
          "value": 0.944881439
        },
        {
          "id": 21,
          "value": 0.944881439
        },
        {
          "id": 22,
          "value": 0.0
        },
        {
          "id": 23,
          "value": 0.0
        },
        {
          "id": 24,
          "value": 1.0
        },
        {
          "id": 25,
          "value": 0.0
        },
        {
          "id": 26,
          "value": 1.0
        },
        {
          "id": 27,
          "value": 0.0
        },
        {
          "id": 28,
          "value": 1.0
        },
        {
          "id": 29,
          "value": 1.0
        },
        {
          "id": 30,
          "value": 0.0
        },
        {
          "id": 31,
          "value": 1.0
        },
        {
          "id": 32,
          "value": 0.0
        },
        {
          "id": 33,
          "value": 1.0
        },
        {
          "id": 34,
          "value": 0.0
        },
        {
          "id": 35,
          "value": 1.0
        },
        {
          "id": 36,
          "value": 1.0
        },
        {
          "id": 37,
          "value": 0.0
        },
        {
          "id": 38,
          "value": 7.0
        },
        {
          "id": 39,
          "value": 1.0
        },
        {
          "id": 40,
          "value": 0.0
        },
        {
          "id": 41,
          "value": 0.0
        },
        {
          "id": 42,
          "value": 1.0
        },
        {
          "id": 43,
          "value": 1.0
        },
        {
          "id": 44,
          "value": 1.0
        },
        {
          "id": 45,
          "value": 1.0
        }
      ],
      "leftModuleId": 299,
      "rightModuleId": 286,
      "data": {
        "mode": 0
      },
      "pos": [
        48,
        1
      ]
    },
    {
      "id": 284,
      "plugin": "NYSTHI",
      "version": "1.0.17",
      "model": "HotTuna",
      "params": [
        {
          "id": 0,
          "value": 0.0
        },
        {
          "id": 1,
          "value": 0.0
        },
        {
          "id": 2,
          "value": 0.0
        },
        {
          "id": 3,
          "value": 0.0
        },
        {
          "id": 4,
          "value": 0.0
        },
        {
          "id": 5,
          "value": 0.0
        }
      ],
      "leftModuleId": 393,
      "rightModuleId": 299,
      "data": {
        "m_use_DOREMI": false,
        "m_low_power_mode": false,
        "m_use_bemolle": false
      },
      "pos": [
        36,
        1
      ]
    },
    {
      "id": 285,
      "plugin": "NYSTHI",
      "version": "1.0.17",
      "model": "HotTuna",
      "params": [
        {
          "id": 0,
          "value": 0.0
        },
        {
          "id": 1,
          "value": 0.0
        },
        {
          "id": 2,
          "value": 0.0
        },
        {
          "id": 3,
          "value": 0.0
        },
        {
          "id": 4,
          "value": 0.0
        },
        {
          "id": 5,
          "value": 0.0
        }
      ],
      "leftModuleId": 286,
      "rightModuleId": 287,
      "data": {
        "m_use_DOREMI": false,
        "m_low_power_mode": false,
        "m_use_bemolle": false
      },
      "pos": [
        68,
        1
      ]
    },
    {
      "id": 286,
      "plugin": "cf",
      "version": "1.1.1",
      "model": "LABEL",
      "params": [],
      "leftModuleId": 281,
      "rightModuleId": 285,
      "data": {
        "lastPath": "Root"
      },
      "pos": [
        66,
        1
      ]
    },
    {
      "id": 287,
      "plugin": "cf",
      "version": "1.1.1",
      "model": "LABEL",
      "params": [],
      "leftModuleId": 285,
      "rightModuleId": 288,
      "data": {
        "lastPath": "3rd"
      },
      "pos": [
        74,
        1
      ]
    },
    {
      "id": 288,
      "plugin": "NYSTHI",
      "version": "1.0.17",
      "model": "HotTuna",
      "params": [
        {
          "id": 0,
          "value": 0.0
        },
        {
          "id": 1,
          "value": 0.0
        },
        {
          "id": 2,
          "value": 0.0
        },
        {
          "id": 3,
          "value": 0.0
        },
        {
          "id": 4,
          "value": 0.0
        },
        {
          "id": 5,
          "value": 0.0
        }
      ],
      "leftModuleId": 287,
      "rightModuleId": 289,
      "data": {
        "m_use_DOREMI": false,
        "m_low_power_mode": false,
        "m_use_bemolle": false
      },
      "pos": [
        76,
        1
      ]
    },
    {
      "id": 289,
      "plugin": "cf",
      "version": "1.1.1",
      "model": "LABEL",
      "params": [],
      "leftModuleId": 288,
      "rightModuleId": 290,
      "data": {
        "lastPath": "5th"
      },
      "pos": [
        82,
        1
      ]
    },
    {
      "id": 290,
      "plugin": "NYSTHI",
      "version": "1.0.17",
      "model": "HotTuna",
      "params": [
        {
          "id": 0,
          "value": 0.0
        },
        {
          "id": 1,
          "value": 0.0
        },
        {
          "id": 2,
          "value": 0.0
        },
        {
          "id": 3,
          "value": 0.0
        },
        {
          "id": 4,
          "value": 0.0
        },
        {
          "id": 5,
          "value": 0.0
        }
      ],
      "leftModuleId": 289,
      "rightModuleId": 291,
      "data": {
        "m_use_DOREMI": false,
        "m_low_power_mode": false,
        "m_use_bemolle": false
      },
      "pos": [
        84,
        1
      ]
    },
    {
      "id": 291,
      "plugin": "cf",
      "version": "1.1.1",
      "model": "LABEL",
      "params": [],
      "leftModuleId": 290,
      "rightModuleId": 292,
      "data": {
        "lastPath": "7th"
      },
      "pos": [
        90,
        1
      ]
    },
    {
      "id": 292,
      "plugin": "NYSTHI",
      "version": "1.0.17",
      "model": "HotTuna",
      "params": [
        {
          "id": 0,
          "value": 0.0
        },
        {
          "id": 1,
          "value": 0.0
        },
        {
          "id": 2,
          "value": 0.0
        },
        {
          "id": 3,
          "value": 0.0
        },
        {
          "id": 4,
          "value": 0.0
        },
        {
          "id": 5,
          "value": 0.0
        }
      ],
      "leftModuleId": 291,
      "rightModuleId": 293,
      "data": {
        "m_use_DOREMI": false,
        "m_low_power_mode": false,
        "m_use_bemolle": false
      },
      "pos": [
        92,
        1
      ]
    },
    {
      "id": 293,
      "plugin": "Bogaudio",
      "version": "1.1.37",
      "model": "Bogaudio-LVCO",
      "params": [
        {
          "id": 0,
          "value": 0.0
        },
        {
          "id": 1,
          "value": 0.0
        },
        {
          "id": 2,
          "value": 3.0
        },
        {
          "id": 3,
          "value": 0.0
        }
      ],
      "leftModuleId": 292,
      "rightModuleId": 294,
      "data": {
        "poly_input": 0,
        "fm_mode": false,
        "linear_mode": false
      },
      "pos": [
        98,
        1
      ]
    },
    {
      "id": 294,
      "plugin": "Bogaudio",
      "version": "1.1.37",
      "model": "Bogaudio-LVCO",
      "params": [
        {
          "id": 0,
          "value": 0.0
        },
        {
          "id": 1,
          "value": 0.0
        },
        {
          "id": 2,
          "value": 3.0
        },
        {
          "id": 3,
          "value": 0.0
        }
      ],
      "leftModuleId": 293,
      "rightModuleId": 295,
      "data": {
        "poly_input": 0,
        "fm_mode": false,
        "linear_mode": false
      },
      "pos": [
        101,
        1
      ]
    },
    {
      "id": 295,
      "plugin": "Bogaudio",
      "version": "1.1.37",
      "model": "Bogaudio-LVCO",
      "params": [
        {
          "id": 0,
          "value": 0.0
        },
        {
          "id": 1,
          "value": 0.0
        },
        {
          "id": 2,
          "value": 3.0
        },
        {
          "id": 3,
          "value": 0.00300005008
        }
      ],
      "leftModuleId": 294,
      "rightModuleId": 296,
      "data": {
        "poly_input": 0,
        "fm_mode": false,
        "linear_mode": false
      },
      "pos": [
        104,
        1
      ]
    },
    {
      "id": 296,
      "plugin": "Bogaudio",
      "version": "1.1.37",
      "model": "Bogaudio-LVCO",
      "params": [
        {
          "id": 0,
          "value": 0.0
        },
        {
          "id": 1,
          "value": 0.0
        },
        {
          "id": 2,
          "value": 3.0
        },
        {
          "id": 3,
          "value": 0.0
        }
      ],
      "leftModuleId": 295,
      "rightModuleId": 298,
      "data": {
        "poly_input": 0,
        "fm_mode": false,
        "linear_mode": false
      },
      "pos": [
        107,
        1
      ]
    },
    {
      "id": 298,
      "plugin": "Bogaudio",
      "version": "1.1.37",
      "model": "Bogaudio-Mix4",
      "params": [
        {
          "id": 0,
          "value": 0.909090936
        },
        {
          "id": 1,
          "value": 0.0
        },
        {
          "id": 2,
          "value": 0.0
        },
        {
          "id": 3,
          "value": 0.909090936
        },
        {
          "id": 4,
          "value": 0.0
        },
        {
          "id": 5,
          "value": 0.0
        },
        {
          "id": 6,
          "value": 0.909090936
        },
        {
          "id": 7,
          "value": 0.0
        },
        {
          "id": 8,
          "value": 0.0
        },
        {
          "id": 9,
          "value": 0.909090936
        },
        {
          "id": 10,
          "value": 0.0
        },
        {
          "id": 11,
          "value": 0.0
        },
        {
          "id": 12,
          "value": 0.909090936
        },
        {
          "id": 13,
          "value": 0.0
        },
        {
          "id": 14,
          "value": 0.0
        }
      ],
      "leftModuleId": 296,
      "rightModuleId": 307,
      "data": {
        "dim_decibels": 12.0,
        "poly_channel_offset": -1
      },
      "pos": [
        110,
        1
      ]
    },
    {
      "id": 299,
      "plugin": "Bogaudio",
      "version": "1.1.37",
      "model": "Bogaudio-AddrSeq",
      "params": [
        {
          "id": 0,
          "value": 8.0
        },
        {
          "id": 1,
          "value": 1.0
        },
        {
          "id": 2,
          "value": 0.0
        },
        {
          "id": 3,
          "value": -0.0809999779
        },
        {
          "id": 4,
          "value": -0.0419999808
        },
        {
          "id": 5,
          "value": -0.0539999902
        },
        {
          "id": 6,
          "value": -0.0180000011
        },
        {
          "id": 7,
          "value": -0.0419999883
        },
        {
          "id": 8,
          "value": -0.0360000059
        },
        {
          "id": 9,
          "value": -0.00299999584
        },
        {
          "id": 10,
          "value": -0.0360000022
        }
      ],
      "leftModuleId": 284,
      "rightModuleId": 281,
      "data": {
        "poly_input": 0,
        "select_on_clock": false,
        "triggered_select": false,
        "reverse_on_negative_clock": false,
        "range_offset": 0.0,
        "range_scale": 10.0
      },
      "pos": [
        42,
        1
      ]
    },
    {
      "id": 300,
      "plugin": "ML_modules",
      "version": "1.1.3",
      "model": "SeqSwitch",
      "params": [
        {
          "id": 0,
          "value": 4.0
        },
        {
          "id": 1,
          "value": 0.0
        },
        {
          "id": 2,
          "value": 0.0
        },
        {
          "id": 3,
          "value": 0.0
        },
        {
          "id": 4,
          "value": 0.0
        },
        {
          "id": 5,
          "value": 0.0
        },
        {
          "id": 6,
          "value": 0.0
        },
        {
          "id": 7,
          "value": 0.0
        },
        {
          "id": 8,
          "value": 0.0
        }
      ],
      "rightModuleId": 301,
      "data": {
        "inputRange": 0
      },
      "pos": [
        100,
        2
      ]
    },
    {
      "id": 301,
      "plugin": "Instruo",
      "version": "1.1.0",
      "model": "tsl",
      "params": [
        {
          "id": 0,
          "value": 0.0
        },
        {
          "id": 1,
          "value": 0.558091819
        },
        {
          "id": 2,
          "value": 0.0
        },
        {
          "id": 3,
          "value": 0.0
        },
        {
          "id": 4,
          "value": 0.0
        },
        {
          "id": 5,
          "value": 1.0
        },
        {
          "id": 6,
          "value": 0.0
        },
        {
          "id": 7,
          "value": 0.0
        },
        {
          "id": 8,
          "value": 0.523499966
        },
        {
          "id": 9,
          "value": 0.121999979
        }
      ],
      "leftModuleId": 300,
      "rightModuleId": 302,
      "data": {
        "deviations": {
          "frequency": {
            "minimum": 0.569999993,
            "maximum": 33530.0,
            "lfo": 158.0,
            "fine": 500.0,
            "linFM": {
              "minimum": 60.0,
              "maximum": 40.0,
              "fine": 83.0,
              "factor": 3.31999993,
              "threshold": -3.20000005
            },
            "expFM": 0.980000019,
            "vpoError": 0.00249999994
          },
          "amplitudes": [
            4.0,
            5.30000019,
            4.9000001,
            5.4000001,
            4.30000019
          ],
          "sync": {
            "voltage": 2.0,
            "phase": 0.939999998
          },
          "tanh_gain": 2.17499995,
          "pwm": {
            "minimum": 0.0500000007,
            "scale": 0.699999988
          },
          "wavefolder": {
            "symmetry": {
              "offset": 0.100000001,
              "scale": -0.300000012
            },
            "tanh": 1.29999995,
            "input": {
              "gain1": -0.0900000036,
              "bias1": 0.0199999996,
              "gain2": 60.0,
              "bias2_scale": {
                "positive": 0.5,
                "negative": 0.300000012
              }
            }
          }
        }
      },
      "pos": [
        108,
        2
      ]
    },
    {
      "id": 302,
      "plugin": "Fundamental",
      "version": "1.4.0",
      "model": "VCMixer",
      "params": [
        {
          "id": 0,
          "value": 1.0
        },
        {
          "id": 1,
          "value": 1.0
        },
        {
          "id": 2,
          "value": 1.0
        },
        {
          "id": 3,
          "value": 1.0
        },
        {
          "id": 4,
          "value": 1.0
        }
      ],
      "leftModuleId": 301,
      "rightModuleId": 304,
      "pos": [
        114,
        2
      ]
    },
    {
      "id": 303,
      "plugin": "VultModulesFree",
      "version": "1.14",
      "model": "Tangents",
      "params": [
        {
          "id": 0,
          "value": 0.409998208
        },
        {
          "id": 1,
          "value": 0.420000106
        },
        {
          "id": 2,
          "value": 0.0
        },
        {
          "id": 3,
          "value": 0.0
        },
        {
          "id": 4,
          "value": 0.600000024
        },
        {
          "id": 5,
          "value": 0.0
        },
        {
          "id": 6,
          "value": 0.0
        }
      ],
      "leftModuleId": 304,
      "rightModuleId": 305,
      "pos": [
        126,
        2
      ]
    },
    {
      "id": 304,
      "plugin": "NYSTHI",
      "version": "1.0.17",
      "model": "AttackDecay",
      "params": [
        {
          "id": 0,
          "value": 0.0
        },
        {
          "id": 1,
          "value": 0.100000001
        },
        {
          "id": 2,
          "value": 0.0
        },
        {
          "id": 3,
          "value": 1.0
        },
        {
          "id": 4,
          "value": 0.5
        },
        {
          "id": 5,
          "value": 0.0
        }
      ],
      "leftModuleId": 302,
      "rightModuleId": 303,
      "data": {
        "m_looped": false
      },
      "pos": [
        124,
        2
      ]
    },
    {
      "id": 305,
      "plugin": "AlrightDevices",
      "version": "1.0.3",
      "model": "Chronoblob2",
      "params": [
        {
          "id": 0,
          "value": 0.35749951
        },
        {
          "id": 1,
          "value": 0.282500058
        },
        {
          "id": 2,
          "value": 0.161999762
        },
        {
          "id": 3,
          "value": 0.0
        },
        {
          "id": 4,
          "value": 0.0
        },
        {
          "id": 5,
          "value": 0.177000105
        },
        {
          "id": 6,
          "value": 0.0
        },
        {
          "id": 7,
          "value": 0.0
        },
        {
          "id": 8,
          "value": 1.0
        },
        {
          "id": 9,
          "value": 0.0
        }
      ],
      "leftModuleId": 303,
      "data": {
        "delay_mode": 1,
        "hold_behavior": 0,
        "sync_prescaler": 6
      },
      "pos": [
        136,
        2
      ]
    },
    {
      "id": 306,
      "plugin": "Core",
      "version": "1.1.6",
      "model": "MIDI-Map",
      "params": [],
      "rightModuleId": 232,
      "data": {
        "maps": [
          {
            "cc": 22,
            "moduleId": 281,
            "paramId": 12
          },
          {
            "cc": 23,
            "moduleId": 281,
            "paramId": 20
          },
          {
            "cc": 48,
            "moduleId": 228,
            "paramId": 20
          },
          {
            "cc": 49,
            "moduleId": 228,
            "paramId": 21
          },
          {
            "cc": -1,
            "moduleId": -1,
            "paramId": 0
          }
        ],
        "midi": {
          "driver": 1,
          "deviceName": "V25 Out",
          "channel": -1
        }
      },
      "pos": [
        0,
        0
      ]
    },
    {
      "id": 307,
      "plugin": "VultModulesFree",
      "version": "1.14",
      "model": "Tangents",
      "params": [
        {
          "id": 0,
          "value": 0.163499549
        },
        {
          "id": 1,
          "value": 0.403499991
        },
        {
          "id": 2,
          "value": 0.0
        },
        {
          "id": 3,
          "value": 0.0
        },
        {
          "id": 4,
          "value": 0.645000219
        },
        {
          "id": 5,
          "value": 0.0
        },
        {
          "id": 6,
          "value": 0.0
        }
      ],
      "leftModuleId": 298,
      "pos": [
        125,
        1
      ]
    },
    {
      "id": 364,
      "plugin": "Core",
      "version": "1.1.6",
      "model": "MIDI-Map",
      "params": [],
      "leftModuleId": 366,
      "rightModuleId": 374,
      "data": {
        "maps": [
          {
            "cc": 7,
            "moduleId": -1,
            "paramId": 0
          },
          {
            "cc": -1,
            "moduleId": -1,
            "paramId": 0
          }
        ],
        "midi": {
          "driver": 1,
          "channel": -1
        }
      },
      "pos": [
        28,
        2
      ]
    },
    {
      "id": 365,
      "plugin": "Core",
      "version": "1.1.6",
      "model": "MIDIToCVInterface",
      "params": [],
      "rightModuleId": 366,
      "data": {
        "channels": 8,
        "polyMode": 2,
        "clockDivision": 24,
        "lastPitch": 8192,
        "lastMod": 57,
        "midi": {
          "driver": 1,
          "deviceName": "V25 Out",
          "channel": -1
        }
      },
      "pos": [
        10,
        2
      ]
    },
    {
      "id": 366,
      "plugin": "Core",
      "version": "1.1.6",
      "model": "MIDICCToCVInterface",
      "params": [],
      "leftModuleId": 365,
      "rightModuleId": 364,
      "data": {
        "ccs": [
          7,
          21,
          22,
          23,
          4,
          1,
          48,
          49,
          8,
          9,
          50,
          51,
          12,
          13,
          14,
          15
        ],
        "values": [
          0,
          57,
          0,
          0,
          0,
          0,
          0,
          99,
          0,
          0,
          0,
          0,
          0,
          0,
          0,
          0,
          0,
          0,
          0,
          0,
          61,
          74,
          81,
          122,
          0,
          0,
          0,
          0,
          0,
          0,
          0,
          0,
          0,
          0,
          0,
          0,
          0,
          0,
          0,
          0,
          0,
          0,
          0,
          0,
          0,
          0,
          0,
          0,
          0,
          0,
          0,
          0,
          0,
          0,
          0,
          0,
          0,
          0,
          0,
          0,
          0,
          0,
          0,
          0,
          0,
          0,
          0,
          0,
          0,
          0,
          0,
          0,
          0,
          0,
          0,
          0,
          0,
          0,
          0,
          0,
          0,
          0,
          0,
          0,
          0,
          0,
          0,
          0,
          0,
          0,
          0,
          0,
          0,
          0,
          0,
          0,
          0,
          0,
          0,
          0,
          0,
          0,
          0,
          0,
          0,
          0,
          0,
          0,
          0,
          0,
          0,
          0,
          0,
          0,
          0,
          0,
          0,
          0,
          0,
          0,
          0,
          0,
          0,
          0,
          0,
          0,
          0,
          0
        ],
        "midi": {
          "driver": 1,
          "channel": -1
        }
      },
      "pos": [
        18,
        2
      ]
    },
    {
      "id": 374,
      "plugin": "Bogaudio",
      "version": "1.1.37",
      "model": "Bogaudio-XCO",
      "params": [
        {
          "id": 0,
          "value": 0.0
        },
        {
          "id": 1,
          "value": 0.0
        },
        {
          "id": 2,
          "value": 0.0
        },
        {
          "id": 3,
          "value": 0.0
        },
        {
          "id": 4,
          "value": 1.0
        },
        {
          "id": 5,
          "value": -0.0378299728
        },
        {
          "id": 6,
          "value": 0.0
        },
        {
          "id": 7,
          "value": 1.0
        },
        {
          "id": 8,
          "value": 0.0
        },
        {
          "id": 9,
          "value": 0.0
        },
        {
          "id": 10,
          "value": 1.0
        },
        {
          "id": 11,
          "value": 0.0
        },
        {
          "id": 12,
          "value": 0.0
        },
        {
          "id": 13,
          "value": 1.0
        },
        {
          "id": 14,
          "value": 0.0
        },
        {
          "id": 15,
          "value": 0.0
        },
        {
          "id": 16,
          "value": 1.0
        }
      ],
      "leftModuleId": 364,
      "rightModuleId": 376,
      "data": {},
      "pos": [
        38,
        2
      ]
    },
    {
      "id": 375,
      "plugin": "VultModulesFree",
      "version": "1.14",
      "model": "Slap",
      "params": [
        {
          "id": 0,
          "value": 0.0
        },
        {
          "id": 1,
          "value": 0.5
        },
        {
          "id": 2,
          "value": 0.5
        },
        {
          "id": 3,
          "value": 0.5
        },
        {
          "id": 4,
          "value": 0.0
        },
        {
          "id": 5,
          "value": 0.0
        },
        {
          "id": 6,
          "value": 0.0
        },
        {
          "id": 7,
          "value": 0.0
        },
        {
          "id": 8,
          "value": 0.0
        }
      ],
      "leftModuleId": 376,
      "pos": [
        66,
        2
      ]
    },
    {
      "id": 376,
      "plugin": "VultModulesFree",
      "version": "1.14",
      "model": "Boomstick",
      "params": [
        {
          "id": 0,
          "value": 0.5
        },
        {
          "id": 1,
          "value": 0.391499996
        },
        {
          "id": 2,
          "value": 0.3935
        },
        {
          "id": 3,
          "value": 0.0
        },
        {
          "id": 4,
          "value": 0.0
        }
      ],
      "leftModuleId": 374,
      "rightModuleId": 375,
      "pos": [
        58,
        2
      ]
    },
    {
      "id": 386,
      "plugin": "VultModulesFree",
      "version": "1.14",
      "model": "Boomstick",
      "params": [
        {
          "id": 0,
          "value": 0.5
        },
        {
          "id": 1,
          "value": 0.391499996
        },
        {
          "id": 2,
          "value": 0.3935
        },
        {
          "id": 3,
          "value": 0.0
        },
        {
          "id": 4,
          "value": 0.0
        }
      ],
      "leftModuleId": 387,
      "rightModuleId": 388,
      "pos": [
        59,
        4
      ]
    },
    {
      "id": 387,
      "plugin": "VultModulesFree",
      "version": "1.14",
      "model": "Boomstick",
      "params": [
        {
          "id": 0,
          "value": 0.5
        },
        {
          "id": 1,
          "value": 0.391499996
        },
        {
          "id": 2,
          "value": 0.3935
        },
        {
          "id": 3,
          "value": 0.0
        },
        {
          "id": 4,
          "value": 0.0
        }
      ],
      "leftModuleId": 390,
      "rightModuleId": 386,
      "pos": [
        51,
        4
      ]
    },
    {
      "id": 388,
      "plugin": "VultModulesFree",
      "version": "1.14",
      "model": "Boomstick",
      "params": [
        {
          "id": 0,
          "value": 0.5
        },
        {
          "id": 1,
          "value": 0.391499996
        },
        {
          "id": 2,
          "value": 0.3935
        },
        {
          "id": 3,
          "value": 0.0
        },
        {
          "id": 4,
          "value": 0.0
        }
      ],
      "leftModuleId": 386,
      "pos": [
        67,
        4
      ]
    },
    {
      "id": 390,
      "plugin": "VultModulesFree",
      "version": "1.14",
      "model": "Boomstick",
      "params": [
        {
          "id": 0,
          "value": 0.5
        },
        {
          "id": 1,
          "value": 0.391499996
        },
        {
          "id": 2,
          "value": 0.3935
        },
        {
          "id": 3,
          "value": 0.0
        },
        {
          "id": 4,
          "value": 0.0
        }
      ],
      "rightModuleId": 387,
      "pos": [
        43,
        4
      ]
    },
    {
      "id": 391,
      "plugin": "Bogaudio",
      "version": "1.1.37",
      "model": "Bogaudio-XCO",
      "params": [
        {
          "id": 0,
          "value": 0.0
        },
        {
          "id": 1,
          "value": 0.0
        },
        {
          "id": 2,
          "value": 0.0
        },
        {
          "id": 3,
          "value": 0.0
        },
        {
          "id": 4,
          "value": 1.0
        },
        {
          "id": 5,
          "value": -0.0378299728
        },
        {
          "id": 6,
          "value": 0.0
        },
        {
          "id": 7,
          "value": 1.0
        },
        {
          "id": 8,
          "value": 0.0
        },
        {
          "id": 9,
          "value": 0.0
        },
        {
          "id": 10,
          "value": 1.0
        },
        {
          "id": 11,
          "value": 0.0
        },
        {
          "id": 12,
          "value": 0.0
        },
        {
          "id": 13,
          "value": 1.0
        },
        {
          "id": 14,
          "value": 0.0
        },
        {
          "id": 15,
          "value": 0.0
        },
        {
          "id": 16,
          "value": 1.0
        }
      ],
      "rightModuleId": 392,
      "data": {},
      "pos": [
        0,
        1
      ]
    },
    {
      "id": 392,
      "plugin": "VultModulesFree",
      "version": "1.14",
      "model": "Boomstick",
      "params": [
        {
          "id": 0,
          "value": 0.5
        },
        {
          "id": 1,
          "value": 0.391499996
        },
        {
          "id": 2,
          "value": 0.3935
        },
        {
          "id": 3,
          "value": 0.0
        },
        {
          "id": 4,
          "value": 0.0
        }
      ],
      "leftModuleId": 391,
      "rightModuleId": 393,
      "pos": [
        20,
        1
      ]
    },
    {
      "id": 393,
      "plugin": "VultModulesFree",
      "version": "1.14",
      "model": "Boomstick",
      "params": [
        {
          "id": 0,
          "value": 0.5
        },
        {
          "id": 1,
          "value": 0.391499996
        },
        {
          "id": 2,
          "value": 0.3935
        },
        {
          "id": 3,
          "value": 0.0
        },
        {
          "id": 4,
          "value": 0.0
        }
      ],
      "leftModuleId": 392,
      "rightModuleId": 284,
      "pos": [
        28,
        1
      ]
    }
  ],
  "cables": [
    {
      "id": 529,
      "outputModuleId": 228,
      "outputId": 2,
      "inputModuleId": 1,
      "inputId": 0,
      "color": "#c91847"
    },
    {
      "id": 530,
      "outputModuleId": 228,
      "outputId": 3,
      "inputModuleId": 1,
      "inputId": 1,
      "color": "#c91847"
    },
    {
      "id": 531,
      "outputModuleId": 229,
      "outputId": 0,
      "inputModuleId": 230,
      "inputId": 0,
      "color": "#c91847"
    },
    {
      "id": 532,
      "outputModuleId": 229,
      "outputId": 4,
      "inputModuleId": 230,
      "inputId": 1,
      "color": "#c91847"
    },
    {
      "id": 533,
      "outputModuleId": 230,
      "outputId": 0,
      "inputModuleId": 229,
      "inputId": 0,
      "color": "#c91847"
    },
    {
      "id": 534,
      "outputModuleId": 230,
      "outputId": 1,
      "inputModuleId": 229,
      "inputId": 1,
      "color": "#c91847"
    },
    {
      "id": 742,
      "outputModuleId": 228,
      "outputId": 2,
      "inputModuleId": 277,
      "inputId": 2,
      "color": "#c91847"
    },
    {
      "id": 743,
      "outputModuleId": 228,
      "outputId": 3,
      "inputModuleId": 277,
      "inputId": 3,
      "color": "#c91847"
    },
    {
      "id": 759,
      "outputModuleId": 296,
      "outputId": 0,
      "inputModuleId": 298,
      "inputId": 11,
      "color": "#c91847"
    },
    {
      "id": 760,
      "outputModuleId": 295,
      "outputId": 0,
      "inputModuleId": 298,
      "inputId": 8,
      "color": "#c91847"
    },
    {
      "id": 761,
      "outputModuleId": 294,
      "outputId": 0,
      "inputModuleId": 298,
      "inputId": 5,
      "color": "#c91847"
    },
    {
      "id": 762,
      "outputModuleId": 293,
      "outputId": 0,
      "inputModuleId": 298,
      "inputId": 2,
      "color": "#c91847"
    },
    {
      "id": 763,
      "outputModuleId": 285,
      "outputId": 1,
      "inputModuleId": 293,
      "inputId": 0,
      "color": "#c9b70e"
    },
    {
      "id": 764,
      "outputModuleId": 288,
      "outputId": 1,
      "inputModuleId": 294,
      "inputId": 0,
      "color": "#c9b70e"
    },
    {
      "id": 765,
      "outputModuleId": 290,
      "outputId": 1,
      "inputModuleId": 295,
      "inputId": 0,
      "color": "#c9b70e"
    },
    {
      "id": 766,
      "outputModuleId": 292,
      "outputId": 1,
      "inputModuleId": 296,
      "inputId": 0,
      "color": "#c9b70e"
    },
    {
      "id": 767,
      "outputModuleId": 281,
      "outputId": 0,
      "inputModuleId": 285,
      "inputId": 1,
      "color": "#c9b70e"
    },
    {
      "id": 772,
      "outputModuleId": 281,
      "outputId": 1,
      "inputModuleId": 288,
      "inputId": 1,
      "color": "#c9b70e"
    },
    {
      "id": 773,
      "outputModuleId": 281,
      "outputId": 2,
      "inputModuleId": 290,
      "inputId": 1,
      "color": "#c9b70e"
    },
    {
      "id": 774,
      "outputModuleId": 281,
      "outputId": 3,
      "inputModuleId": 292,
      "inputId": 1,
      "color": "#c9b70e"
    },
    {
      "id": 777,
      "outputModuleId": 299,
      "outputId": 0,
      "inputModuleId": 281,
      "inputId": 0,
      "color": "#c9b70e"
    },
    {
      "id": 778,
      "outputModuleId": 281,
      "outputId": 0,
      "inputModuleId": 300,
      "inputId": 0,
      "color": "#0c8e15"
    },
    {
      "id": 779,
      "outputModuleId": 281,
      "outputId": 1,
      "inputModuleId": 300,
      "inputId": 1,
      "color": "#c91847"
    },
    {
      "id": 780,
      "outputModuleId": 281,
      "outputId": 2,
      "inputModuleId": 300,
      "inputId": 2,
      "color": "#0986ad"
    },
    {
      "id": 781,
      "outputModuleId": 281,
      "outputId": 3,
      "inputModuleId": 300,
      "inputId": 3,
      "color": "#c9b70e"
    },
    {
      "id": 776,
      "outputModuleId": 231,
      "outputId": 4,
      "inputModuleId": 299,
      "inputId": 1,
      "color": "#0986ad"
    },
    {
      "id": 785,
      "outputModuleId": 301,
      "outputId": 0,
      "inputModuleId": 302,
      "inputId": 1,
      "color": "#c91847"
    },
    {
      "id": 786,
      "outputModuleId": 301,
      "outputId": 1,
      "inputModuleId": 302,
      "inputId": 2,
      "color": "#c91847"
    },
    {
      "id": 787,
      "outputModuleId": 301,
      "outputId": 3,
      "inputModuleId": 302,
      "inputId": 3,
      "color": "#c91847"
    },
    {
      "id": 788,
      "outputModuleId": 301,
      "outputId": 4,
      "inputModuleId": 302,
      "inputId": 4,
      "color": "#c91847"
    },
    {
      "id": 789,
      "outputModuleId": 300,
      "outputId": 0,
      "inputModuleId": 301,
      "inputId": 0,
      "color": "#c9b70e"
    },
    {
      "id": 790,
      "outputModuleId": 231,
      "outputId": 4,
      "inputModuleId": 300,
      "inputId": 11,
      "color": "#0986ad"
    },
    {
      "id": 791,
      "outputModuleId": 231,
      "outputId": 2,
      "inputModuleId": 300,
      "inputId": 9,
      "color": "#0986ad"
    },
    {
      "id": 792,
      "outputModuleId": 304,
      "outputId": 0,
      "inputModuleId": 302,
      "inputId": 0,
      "color": "#0c8e15"
    },
    {
      "id": 793,
      "outputModuleId": 302,
      "outputId": 0,
      "inputModuleId": 303,
      "inputId": 0,
      "color": "#c91847"
    },
    {
      "id": 794,
      "outputModuleId": 303,
      "outputId": 0,
      "inputModuleId": 305,
      "inputId": 5,
      "color": "#c91847"
    },
    {
      "id": 795,
      "outputModuleId": 231,
      "outputId": 0,
      "inputModuleId": 305,
      "inputId": 7,
      "color": "#0986ad"
    },
    {
      "id": 796,
      "outputModuleId": 305,
      "outputId": 0,
      "inputModuleId": 228,
      "inputId": 2,
      "color": "#c91847"
    },
    {
      "id": 797,
      "outputModuleId": 305,
      "outputId": 1,
      "inputModuleId": 228,
      "inputId": 3,
      "color": "#c91847"
    },
    {
      "id": 798,
      "outputModuleId": 231,
      "outputId": 2,
      "inputModuleId": 304,
      "inputId": 3,
      "color": "#0986ad"
    },
    {
      "id": 806,
      "outputModuleId": 233,
      "outputId": 0,
      "inputModuleId": 281,
      "inputId": 3,
      "color": "#0986ad"
    },
    {
      "id": 807,
      "outputModuleId": 233,
      "outputId": 1,
      "inputModuleId": 281,
      "inputId": 2,
      "color": "#c9b70e"
    },
    {
      "id": 811,
      "outputModuleId": 231,
      "outputId": 1,
      "inputModuleId": 299,
      "inputId": 0,
      "color": "#c9b70e"
    },
    {
      "id": 813,
      "outputModuleId": 298,
      "outputId": 0,
      "inputModuleId": 307,
      "inputId": 0,
      "color": "#c91847"
    },
    {
      "id": 814,
      "outputModuleId": 307,
      "outputId": 0,
      "inputModuleId": 228,
      "inputId": 0,
      "color": "#c91847"
    },
    {
      "id": 911,
      "outputModuleId": 299,
      "outputId": 0,
      "inputModuleId": 284,
      "inputId": 1,
      "color": "#0986ad"
    },
    {
      "id": 914,
      "outputModuleId": 365,
      "outputId": 0,
      "inputModuleId": 374,
      "inputId": 14,
      "color": "#c91847"
    },
    {
      "id": 915,
      "outputModuleId": 365,
      "outputId": 1,
      "inputModuleId": 375,
      "inputId": 0,
      "color": "#0986ad"
    },
    {
      "id": 917,
      "outputModuleId": 375,
      "outputId": 0,
      "inputModuleId": 228,
      "inputId": 6,
      "color": "#0c8e15"
    },
    {
      "id": 916,
      "outputModuleId": 374,
      "outputId": 4,
      "inputModuleId": 376,
      "inputId": 2,
      "color": "#c9b70e"
    },
    {
      "id": 918,
      "outputModuleId": 376,
      "outputId": 0,
      "inputModuleId": 375,
      "inputId": 5,
      "color": "#0986ad"
    },
    {
      "id": 919,
      "outputModuleId": 232,
      "outputId": 0,
      "inputModuleId": 391,
      "inputId": 14,
      "color": "#c9b70e"
    }
  ]
}