{
  "version": "0.6.2b",
  "modules": [
    {
      "plugin": "Core",
      "version": "0.6.2b",
      "model": "AudioInterface",
      "params": [],
      "data": {
        "audio": {
          "driver": 6,
          "deviceName": "Line (5- Steinberg UR242)",
          "offset": 0,
          "maxChannels": 8,
          "sampleRate": 44100,
          "blockSize": 4096
        }
      },
      "pos": [
        98,
        0
      ]
    },
    {
      "plugin": "Valley",
      "version": "0.6.6",
      "model": "Plateau",
      "params": [
        {
          "paramId": 0,
          "value": 1.0
        },
        {
          "paramId": 1,
          "value": 0.352500081
        },
        {
          "paramId": 2,
          "value": 0.0
        },
        {
          "paramId": 3,
          "value": 8.35000038
        },
        {
          "paramId": 4,
          "value": 10.0
        },
        {
          "paramId": 5,
          "value": 0.5
        },
        {
          "paramId": 6,
          "value": 10.0
        },
        {
          "paramId": 7,
          "value": 0.435212731
        },
        {
          "paramId": 9,
          "value": 10.0
        },
        {
          "paramId": 8,
          "value": 10.0
        },
        {
          "paramId": 10,
          "value": 0.0
        },
        {
          "paramId": 12,
          "value": 4.05199957
        },
        {
          "paramId": 11,
          "value": 0.5
        },
        {
          "paramId": 17,
          "value": 0.0
        },
        {
          "paramId": 18,
          "value": 0.0
        },
        {
          "paramId": 19,
          "value": 0.0
        },
        {
          "paramId": 20,
          "value": 0.0
        },
        {
          "paramId": 21,
          "value": 0.0
        },
        {
          "paramId": 22,
          "value": 0.0
        },
        {
          "paramId": 23,
          "value": 0.0
        },
        {
          "paramId": 25,
          "value": 0.0
        },
        {
          "paramId": 24,
          "value": 0.0
        },
        {
          "paramId": 26,
          "value": 0.0
        },
        {
          "paramId": 28,
          "value": 0.0
        },
        {
          "paramId": 27,
          "value": 0.0
        },
        {
          "paramId": 13,
          "value": 0.0
        },
        {
          "paramId": 15,
          "value": 0.0
        },
        {
          "paramId": 14,
          "value": 0.0
        },
        {
          "paramId": 29,
          "value": 0.0
        },
        {
          "paramId": 30,
          "value": 0.0
        }
      ],
      "data": {
        "frozen": false,
        "freezeToggle": false,
        "panelStyle": 0,
        "tuned": 0,
        "diffuseInput": 1,
        "preDelayCVSens": 0
      },
      "pos": [
        74,
        0
      ]
    },
    {
      "plugin": "ImpromptuModular",
      "version": "0.6.11",
      "model": "Clocked",
      "params": [
        {
          "paramId": 0,
          "value": 138.0
        },
        {
          "paramId": 12,
          "value": 0.0
        },
        {
          "paramId": 13,
          "value": 0.0
        },
        {
          "paramId": 18,
          "value": 0.0
        },
        {
          "paramId": 4,
          "value": 0.0
        },
        {
          "paramId": 8,
          "value": 0.5
        },
        {
          "paramId": 1,
          "value": 2.0
        },
        {
          "paramId": 5,
          "value": 0.0
        },
        {
          "paramId": 9,
          "value": 0.5
        },
        {
          "paramId": 15,
          "value": 0.0
        },
        {
          "paramId": 2,
          "value": -5.0
        },
        {
          "paramId": 6,
          "value": 0.0
        },
        {
          "paramId": 10,
          "value": 0.5
        },
        {
          "paramId": 16,
          "value": 0.0
        },
        {
          "paramId": 3,
          "value": -18.0
        },
        {
          "paramId": 7,
          "value": 0.0
        },
        {
          "paramId": 11,
          "value": 0.5
        },
        {
          "paramId": 17,
          "value": 0.0
        }
      ],
      "data": {
        "running": true,
        "panelTheme": 1,
        "expansion": 0,
        "displayDelayNoteMode": true,
        "bpmDetectionMode": false,
        "emitResetOnStopRun": false,
        "ppqn": 4
      },
      "pos": [
        0,
        0
      ]
    },
    {
      "plugin": "cf",
      "version": "0.6.5",
      "model": "MASTER",
      "params": [
        {
          "paramId": 0,
          "value": 2.92999935
        },
        {
          "paramId": 1,
          "value": 0.0
        }
      ],
      "data": {
        "onstate": 0
      },
      "pos": [
        92,
        0
      ]
    },
    {
      "plugin": "StellareModular",
      "version": "0.6.0",
      "model": "TuringMachine",
      "params": [
        {
          "paramId": 0,
          "value": 0.225499973
        },
        {
          "paramId": 1,
          "value": 0.160999998
        },
        {
          "paramId": 2,
          "value": 0.131000012
        },
        {
          "paramId": 3,
          "value": 0.252499998
        },
        {
          "paramId": 4,
          "value": 0.0919999778
        },
        {
          "paramId": 5,
          "value": 0.0
        },
        {
          "paramId": 12,
          "value": 0.0
        },
        {
          "paramId": 11,
          "value": 0.0
        },
        {
          "paramId": 6,
          "value": 7.0
        },
        {
          "paramId": 7,
          "value": 0.153499946
        },
        {
          "paramId": 9,
          "value": 0.0
        },
        {
          "paramId": 10,
          "value": 0.0
        }
      ],
      "data": {
        "pulses_mode": 0
      },
      "pos": [
        0,
        1
      ]
    },
    {
      "plugin": "Bogaudio",
      "version": "0.6.10",
      "model": "Bogaudio-Mult",
      "params": [],
      "pos": [
        25,
        0
      ]
    },
    {
      "plugin": "cf",
      "version": "0.6.5",
      "model": "MONO",
      "params": [
        {
          "paramId": 0,
          "value": 0.0
        },
        {
          "paramId": 1,
          "value": 2.46499896
        },
        {
          "paramId": 2,
          "value": 0.0
        },
        {
          "paramId": 3,
          "value": 0.0
        }
      ],
      "data": {
        "solostate": 0,
        "onstate": 1
      },
      "pos": [
        86,
        0
      ]
    },
    {
      "plugin": "Bogaudio",
      "version": "0.6.10",
      "model": "Bogaudio-Mix8",
      "params": [
        {
          "paramId": 0,
          "value": 0.891090989
        },
        {
          "paramId": 1,
          "value": 0.0
        },
        {
          "paramId": 2,
          "value": 0.0
        },
        {
          "paramId": 3,
          "value": 0.826590955
        },
        {
          "paramId": 4,
          "value": 0.0
        },
        {
          "paramId": 5,
          "value": -1.0
        },
        {
          "paramId": 6,
          "value": 0.823590815
        },
        {
          "paramId": 7,
          "value": 0.0
        },
        {
          "paramId": 8,
          "value": 1.0
        },
        {
          "paramId": 9,
          "value": 0.793590963
        },
        {
          "paramId": 10,
          "value": 0.0
        },
        {
          "paramId": 11,
          "value": 0.0
        },
        {
          "paramId": 12,
          "value": 0.804090917
        },
        {
          "paramId": 13,
          "value": 0.0
        },
        {
          "paramId": 14,
          "value": -1.0
        },
        {
          "paramId": 15,
          "value": 0.810090959
        },
        {
          "paramId": 16,
          "value": 0.0
        },
        {
          "paramId": 17,
          "value": 0.967000008
        },
        {
          "paramId": 18,
          "value": 0.861090958
        },
        {
          "paramId": 19,
          "value": 0.0
        },
        {
          "paramId": 20,
          "value": 0.0
        },
        {
          "paramId": 21,
          "value": 0.802590966
        },
        {
          "paramId": 22,
          "value": 0.0
        },
        {
          "paramId": 23,
          "value": 0.0
        },
        {
          "paramId": 24,
          "value": 0.909090936
        },
        {
          "paramId": 25,
          "value": 0.0
        }
      ],
      "pos": [
        47,
        0
      ]
    },
    {
      "plugin": "ImpromptuModular",
      "version": "0.6.11",
      "model": "Gate-Seq-64",
      "params": [
        {
          "paramId": 0,
          "value": 0.0
        },
        {
          "paramId": 1,
          "value": 0.0
        },
        {
          "paramId": 2,
          "value": 0.0
        },
        {
          "paramId": 3,
          "value": 0.0
        },
        {
          "paramId": 4,
          "value": 0.0
        },
        {
          "paramId": 5,
          "value": 0.0
        },
        {
          "paramId": 6,
          "value": 0.0
        },
        {
          "paramId": 7,
          "value": 0.0
        },
        {
          "paramId": 8,
          "value": 0.0
        },
        {
          "paramId": 9,
          "value": 0.0
        },
        {
          "paramId": 10,
          "value": 0.0
        },
        {
          "paramId": 11,
          "value": 0.0
        },
        {
          "paramId": 12,
          "value": 0.0
        },
        {
          "paramId": 13,
          "value": 0.0
        },
        {
          "paramId": 14,
          "value": 0.0
        },
        {
          "paramId": 15,
          "value": 0.0
        },
        {
          "paramId": 16,
          "value": 0.0
        },
        {
          "paramId": 17,
          "value": 0.0
        },
        {
          "paramId": 18,
          "value": 0.0
        },
        {
          "paramId": 19,
          "value": 0.0
        },
        {
          "paramId": 20,
          "value": 0.0
        },
        {
          "paramId": 21,
          "value": 0.0
        },
        {
          "paramId": 22,
          "value": 0.0
        },
        {
          "paramId": 23,
          "value": 0.0
        },
        {
          "paramId": 24,
          "value": 0.0
        },
        {
          "paramId": 25,
          "value": 0.0
        },
        {
          "paramId": 26,
          "value": 0.0
        },
        {
          "paramId": 27,
          "value": 0.0
        },
        {
          "paramId": 28,
          "value": 0.0
        },
        {
          "paramId": 29,
          "value": 0.0
        },
        {
          "paramId": 30,
          "value": 0.0
        },
        {
          "paramId": 31,
          "value": 0.0
        },
        {
          "paramId": 32,
          "value": 0.0
        },
        {
          "paramId": 33,
          "value": 0.0
        },
        {
          "paramId": 34,
          "value": 0.0
        },
        {
          "paramId": 35,
          "value": 0.0
        },
        {
          "paramId": 36,
          "value": 0.0
        },
        {
          "paramId": 37,
          "value": 0.0
        },
        {
          "paramId": 38,
          "value": 0.0
        },
        {
          "paramId": 39,
          "value": 0.0
        },
        {
          "paramId": 40,
          "value": 0.0
        },
        {
          "paramId": 41,
          "value": 0.0
        },
        {
          "paramId": 42,
          "value": 0.0
        },
        {
          "paramId": 43,
          "value": 0.0
        },
        {
          "paramId": 44,
          "value": 0.0
        },
        {
          "paramId": 45,
          "value": 0.0
        },
        {
          "paramId": 46,
          "value": 0.0
        },
        {
          "paramId": 47,
          "value": 0.0
        },
        {
          "paramId": 48,
          "value": 0.0
        },
        {
          "paramId": 49,
          "value": 0.0
        },
        {
          "paramId": 50,
          "value": 0.0
        },
        {
          "paramId": 51,
          "value": 0.0
        },
        {
          "paramId": 52,
          "value": 0.0
        },
        {
          "paramId": 53,
          "value": 0.0
        },
        {
          "paramId": 54,
          "value": 0.0
        },
        {
          "paramId": 55,
          "value": 0.0
        },
        {
          "paramId": 56,
          "value": 0.0
        },
        {
          "paramId": 57,
          "value": 0.0
        },
        {
          "paramId": 58,
          "value": 0.0
        },
        {
          "paramId": 59,
          "value": 0.0
        },
        {
          "paramId": 60,
          "value": 0.0
        },
        {
          "paramId": 61,
          "value": 0.0
        },
        {
          "paramId": 62,
          "value": 0.0
        },
        {
          "paramId": 63,
          "value": 0.0
        },
        {
          "paramId": 78,
          "value": 0.0
        },
        {
          "paramId": 77,
          "value": 0.0
        },
        {
          "paramId": 76,
          "value": 0.0
        },
        {
          "paramId": 79,
          "value": 0.0
        },
        {
          "paramId": 80,
          "value": 0.0
        },
        {
          "paramId": 81,
          "value": 0.0
        },
        {
          "paramId": 82,
          "value": 0.0
        },
        {
          "paramId": 83,
          "value": 0.0
        },
        {
          "paramId": 70,
          "value": 0.0
        },
        {
          "paramId": 69,
          "value": 0.0
        },
        {
          "paramId": 72,
          "value": 0.0
        },
        {
          "paramId": 65,
          "value": 0.0
        },
        {
          "paramId": 64,
          "value": 0.0
        },
        {
          "paramId": 67,
          "value": 0.0
        },
        {
          "paramId": 68,
          "value": 0.0
        },
        {
          "paramId": 71,
          "value": 1.0
        },
        {
          "paramId": 66,
          "value": 0.0
        },
        {
          "paramId": 73,
          "value": 2.0
        }
      ],
      "data": {
        "panelTheme": 0,
        "expansion": 0,
        "autoseq": false,
        "pulsesPerStep": 1,
        "running": true,
        "runModeSeq2": [
          0,
          0,
          0,
          0,
          0,
          0,
          0,
          0,
          0,
          0,
          0,
          0,
          0,
          0,
          0,
          0
        ],
        "runModeSong": 0,
        "sequence": 0,
        "lengths": [
          15,
          16,
          16,
          16,
          16,
          16,
          16,
          16,
          16,
          16,
          16,
          16,
          16,
          16,
          16,
          16
        ],
        "phrase2": [
          0,
          0,
          0,
          0,
          0,
          0,
          0,
          0,
          0,
          0,
          0,
          0,
          0,
          0,
          0,
          0,
          0,
          0,
          0,
          0,
          0,
          0,
          0,
          0,
          0,
          0,
          0,
          0,
          0,
          0,
          0,
          0,
          0,
          0,
          0,
          0,
          0,
          0,
          0,
          0,
          0,
          0,
          0,
          0,
          0,
          0,
          0,
          0,
          0,
          0,
          0,
          0,
          0,
          0,
          0,
          0,
          0,
          0,
          0,
          0,
          0,
          0,
          0,
          0
        ],
        "phrases": 4,
        "attributes": [
          562,
          562,
          50,
          562,
          50,
          562,
          562,
          50,
          50,
          562,
          50,
          50,
          562,
          562,
          562,
          562,
          50,
          562,
          50,
          50,
          562,
          562,
          562,
          562,
          50,
          562,
          50,
          50,
          562,
          50,
          562,
          50,
          50,
          562,
          50,
          50,
          562,
          562,
          562,
          50,
          50,
          562,
          50,
          50,
          50,
          562,
          562,
          50,
          50,
          50,
          50,
          50,
          50,
          562,
          562,
          50,
          562,
          50,
          562,
          50,
          562,
          562,
          50,
          562,
          50,
          50,
          50,
          50,
          50,
          50,
          50,
          50,
          50,
          50,
          50,
          50,
          50,
          50,
          50,
          50,
          50,
          50,
          50,
          50,
          50,
          50,
          50,
          50,
          50,
          50,
          50,
          50,
          50,
          50,
          50,
          50,
          50,
          50,
          50,
          50,
          50,
          50,
          50,
          50,
          50,
          50,
          50,
          50,
          50,
          50,
          50,
          50,
          50,
          50,
          50,
          50,
          50,
          50,
          50,
          50,
          50,
          50,
          50,
          50,
          50,
          50,
          50,
          50,
          50,
          50,
          50,
          50,
          50,
          50,
          50,
          50,
          50,
          50,
          50,
          50,
          50,
          50,
          50,
          50,
          50,
          50,
          50,
          50,
          50,
          50,
          50,
          50,
          50,
          50,
          50,
          50,
          50,
          50,
          50,
          50,
          50,
          50,
          50,
          50,
          50,
          50,
          50,
          50,
          50,
          50,
          50,
          50,
          50,
          50,
          50,
          50,
          50,
          50,
          50,
          50,
          50,
          50,
          50,
          50,
          50,
          50,
          50,
          50,
          50,
          50,
          50,
          50,
          50,
          50,
          50,
          50,
          50,
          50,
          50,
          50,
          50,
          50,
          50,
          50,
          50,
          50,
          50,
          50,
          50,
          50,
          50,
          50,
          50,
          50,
          50,
          50,
          50,
          50,
          50,
          50,
          50,
          50,
          50,
          50,
          50,
          50,
          50,
          50,
          50,
          50,
          50,
          50,
          50,
          50,
          50,
          50,
          50,
          50,
          50,
          50,
          50,
          50,
          50,
          50,
          50,
          50,
          50,
          50,
          50,
          50,
          50,
          50,
          50,
          50,
          50,
          50,
          50,
          50,
          50,
          50,
          50,
          50,
          50,
          50,
          50,
          50,
          50,
          50,
          50,
          50,
          50,
          50,
          50,
          50,
          50,
          50,
          50,
          50,
          50,
          50,
          50,
          50,
          50,
          50,
          50,
          50,
          50,
          50,
          50,
          50,
          50,
          50,
          50,
          50,
          50,
          50,
          50,
          50,
          50,
          50,
          50,
          50,
          50,
          50,
          50,
          50,
          50,
          50,
          50,
          50,
          50,
          50,
          50,
          50,
          50,
          50,
          50,
          50,
          50,
          50,
          50,
          50,
          50,
          50,
          50,
          50,
          50,
          50,
          50,
          50,
          50,
          50,
          50,
          50,
          50,
          50,
          50,
          50,
          50,
          50,
          50,
          50,
          50,
          50,
          50,
          50,
          50,
          50,
          50,
          50,
          50,
          50,
          50,
          50,
          50,
          50,
          50,
          50,
          50,
          50,
          50,
          50,
          50,
          50,
          50,
          50,
          50,
          50,
          50,
          50,
          50,
          50,
          50,
          50,
          50,
          50,
          50,
          50,
          50,
          50,
          50,
          50,
          50,
          50,
          50,
          50,
          50,
          50,
          50,
          50,
          50,
          50,
          50,
          50,
          50,
          50,
          50,
          50,
          50,
          50,
          50,
          50,
          50,
          50,
          50,
          50,
          50,
          50,
          50,
          50,
          50,
          50,
          50,
          50,
          50,
          50,
          50,
          50,
          50,
          50,
          50,
          50,
          50,
          50,
          50,
          50,
          50,
          50,
          50,
          50,
          50,
          50,
          50,
          50,
          50,
          50,
          50,
          50,
          50,
          50,
          50,
          50,
          50,
          50,
          50,
          50,
          50,
          50,
          50,
          50,
          50,
          50,
          50,
          50,
          50,
          50,
          50,
          50,
          50,
          50,
          50,
          50,
          50,
          50,
          50,
          50,
          50,
          50,
          50,
          50,
          50,
          50,
          50,
          50,
          50,
          50,
          50,
          50,
          50,
          50,
          50,
          50,
          50,
          50,
          50,
          50,
          50,
          50,
          50,
          50,
          50,
          50,
          50,
          50,
          50,
          50,
          50,
          50,
          50,
          50,
          50,
          50,
          50,
          50,
          50,
          50,
          50,
          50,
          50,
          50,
          50,
          50,
          50,
          50,
          50,
          50,
          50,
          50,
          50,
          50,
          50,
          50,
          50,
          50,
          50,
          50,
          50,
          50,
          50,
          50,
          50,
          50,
          50,
          50,
          50,
          50,
          50,
          50,
          50,
          50,
          50,
          50,
          50,
          50,
          50,
          50,
          50,
          50,
          50,
          50,
          50,
          50,
          50,
          50,
          50,
          50,
          50,
          50,
          50,
          50,
          50,
          50,
          50,
          50,
          50,
          50,
          50,
          50,
          50,
          50,
          50,
          50,
          50,
          50,
          50,
          50,
          50,
          50,
          50,
          50,
          50,
          50,
          50,
          50,
          50,
          50,
          50,
          50,
          50,
          50,
          50,
          50,
          50,
          50,
          50,
          50,
          50,
          50,
          50,
          50,
          50,
          50,
          50,
          50,
          50,
          50,
          50,
          50,
          50,
          50,
          50,
          50,
          50,
          50,
          50,
          50,
          50,
          50,
          50,
          50,
          50,
          50,
          50,
          50,
          50,
          50,
          50,
          50,
          50,
          50,
          50,
          50,
          50,
          50,
          50,
          50,
          50,
          50,
          50,
          50,
          50,
          50,
          50,
          50,
          50,
          50,
          50,
          50,
          50,
          50,
          50,
          50,
          50,
          50,
          50,
          50,
          50,
          50,
          50,
          50,
          50,
          50,
          50,
          50,
          50,
          50,
          50,
          50,
          50,
          50,
          50,
          50,
          50,
          50,
          50,
          50,
          50,
          50,
          50,
          50,
          50,
          50,
          50,
          50,
          50,
          50,
          50,
          50,
          50,
          50,
          50,
          50,
          50,
          50,
          50,
          50,
          50,
          50,
          50,
          50,
          50,
          50,
          50,
          50,
          50,
          50,
          50,
          50,
          50,
          50,
          50,
          50,
          50,
          50,
          50,
          50,
          50,
          50,
          50,
          50,
          50,
          50,
          50,
          50,
          50,
          50,
          50,
          50,
          50,
          50,
          50,
          50,
          50,
          50,
          50,
          50,
          50,
          50,
          50,
          50,
          50,
          50,
          50,
          50,
          50,
          50,
          50,
          50,
          50,
          50,
          50,
          50,
          50,
          50,
          50,
          50,
          50,
          50,
          50,
          50,
          50,
          50,
          50,
          50,
          50,
          50,
          50,
          50,
          50,
          50,
          50,
          50,
          50,
          50,
          50,
          50,
          50,
          50,
          50,
          50,
          50,
          50,
          50,
          50,
          50,
          50,
          50,
          50,
          50,
          50,
          50,
          50,
          50,
          50,
          50,
          50,
          50,
          50,
          50,
          50,
          50,
          50,
          50,
          50,
          50,
          50,
          50,
          50,
          50,
          50,
          50,
          50,
          50,
          50,
          50,
          50,
          50,
          50,
          50,
          50,
          50,
          50,
          50,
          50,
          50,
          50,
          50,
          50,
          50,
          50,
          50,
          50,
          50,
          50,
          50,
          50,
          50,
          50,
          50,
          50,
          50,
          50,
          50,
          50,
          50,
          50,
          50,
          50,
          50,
          50,
          50,
          50,
          50,
          50,
          50,
          50,
          50,
          50,
          50,
          50,
          50,
          50,
          50,
          50,
          50,
          50,
          50,
          50,
          50,
          50,
          50,
          50,
          50,
          50,
          50,
          50,
          50,
          50,
          50,
          50,
          50,
          50,
          50,
          50,
          50,
          50,
          50,
          50,
          50,
          50,
          50,
          50,
          50,
          50,
          50,
          50,
          50,
          50,
          50,
          50,
          50,
          50,
          50,
          50,
          50,
          50,
          50,
          50,
          50,
          50,
          50,
          50,
          50,
          50,
          50,
          50,
          50,
          50,
          50,
          50,
          50,
          50,
          50,
          50,
          50,
          50,
          50,
          50,
          50,
          50,
          50,
          50,
          50,
          50,
          50,
          50,
          50,
          50,
          50,
          50,
          50,
          50,
          50,
          50,
          50,
          50,
          50,
          50,
          50,
          50,
          50,
          50,
          50,
          50,
          50,
          50,
          50,
          50,
          50,
          50,
          50,
          50,
          50,
          50,
          50,
          50,
          50,
          50,
          50,
          50,
          50,
          50,
          50,
          50,
          50,
          50,
          50,
          50,
          50,
          50,
          50,
          50,
          50,
          50,
          50,
          50,
          50,
          50,
          50,
          50,
          50,
          50,
          50,
          50,
          50,
          50,
          50,
          50,
          50,
          50,
          50,
          50,
          50,
          50,
          50,
          50,
          50,
          50,
          50,
          50,
          50,
          50,
          50,
          50,
          50,
          50,
          50,
          50,
          50,
          50,
          50,
          50,
          50,
          50
        ],
        "resetOnRun": false,
        "stepIndexEdit": 35,
        "phraseIndexEdit": 0
      },
      "pos": [
        18,
        1
      ]
    },
    {
      "plugin": "VultModulesFree",
      "version": "0.6.15",
      "model": "Basal",
      "params": [
        {
          "paramId": 0,
          "value": 0.0
        },
        {
          "paramId": 1,
          "value": 0.0
        },
        {
          "paramId": 2,
          "value": 0.0
        },
        {
          "paramId": 4,
          "value": 0.0
        },
        {
          "paramId": 3,
          "value": 0.654000044
        },
        {
          "paramId": 5,
          "value": 0.674999893
        }
      ],
      "pos": [
        57,
        1
      ]
    },
    {
      "plugin": "VultModulesFree",
      "version": "0.6.15",
      "model": "Slap",
      "params": [
        {
          "paramId": 0,
          "value": 0.0
        },
        {
          "paramId": 1,
          "value": 0.5
        },
        {
          "paramId": 2,
          "value": 0.5
        },
        {
          "paramId": 3,
          "value": 0.5
        },
        {
          "paramId": 4,
          "value": 0.0
        },
        {
          "paramId": 5,
          "value": 0.0
        },
        {
          "paramId": 6,
          "value": 0.0
        },
        {
          "paramId": 7,
          "value": 0.0
        },
        {
          "paramId": 8,
          "value": 0.0
        }
      ],
      "pos": [
        65,
        1
      ]
    },
    {
      "plugin": "ML_modules",
      "version": "0.6.2",
      "model": "Quantum",
      "params": [
        {
          "paramId": 0,
          "value": 0.0
        },
        {
          "paramId": 1,
          "value": 0.0
        },
        {
          "paramId": 2,
          "value": 0.0
        },
        {
          "paramId": 3,
          "value": 0.0
        },
        {
          "paramId": 4,
          "value": 0.0
        },
        {
          "paramId": 5,
          "value": 0.0
        },
        {
          "paramId": 6,
          "value": 0.0
        },
        {
          "paramId": 7,
          "value": 0.0
        },
        {
          "paramId": 8,
          "value": 0.0
        },
        {
          "paramId": 9,
          "value": 0.0
        },
        {
          "paramId": 10,
          "value": 0.0
        },
        {
          "paramId": 11,
          "value": 0.0
        }
      ],
      "data": {
        "scale": [
          1,
          0,
          0,
          1,
          0,
          1,
          0,
          1,
          0,
          0,
          1,
          0
        ],
        "mode": 3
      },
      "pos": [
        42,
        1
      ]
    },
    {
      "plugin": "ML_modules",
      "version": "0.6.2",
      "model": "ShiftRegister",
      "params": [],
      "pos": [
        50,
        1
      ]
    },
    {
      "plugin": "VultModulesFree",
      "version": "0.6.15",
      "model": "Basal",
      "params": [
        {
          "paramId": 0,
          "value": 0.0
        },
        {
          "paramId": 1,
          "value": 0.437999964
        },
        {
          "paramId": 2,
          "value": 0.0
        },
        {
          "paramId": 4,
          "value": 0.0
        },
        {
          "paramId": 3,
          "value": 0.650999963
        },
        {
          "paramId": 5,
          "value": 0.717000008
        }
      ],
      "pos": [
        78,
        1
      ]
    },
    {
      "plugin": "VultModulesFree",
      "version": "0.6.15",
      "model": "Slap",
      "params": [
        {
          "paramId": 0,
          "value": 0.0
        },
        {
          "paramId": 1,
          "value": 0.5
        },
        {
          "paramId": 2,
          "value": 0.5
        },
        {
          "paramId": 3,
          "value": 0.5
        },
        {
          "paramId": 4,
          "value": 0.0
        },
        {
          "paramId": 5,
          "value": 0.0
        },
        {
          "paramId": 6,
          "value": 0.0
        },
        {
          "paramId": 7,
          "value": 0.0
        },
        {
          "paramId": 8,
          "value": 0.0
        }
      ],
      "pos": [
        86,
        1
      ]
    },
    {
      "plugin": "VultModulesFree",
      "version": "0.6.15",
      "model": "Basal",
      "params": [
        {
          "paramId": 0,
          "value": 0.0
        },
        {
          "paramId": 1,
          "value": 0.425999999
        },
        {
          "paramId": 2,
          "value": 0.0
        },
        {
          "paramId": 4,
          "value": 0.0
        },
        {
          "paramId": 3,
          "value": 0.0
        },
        {
          "paramId": 5,
          "value": 0.699000061
        }
      ],
      "pos": [
        96,
        1
      ]
    },
    {
      "plugin": "VultModulesFree",
      "version": "0.6.15",
      "model": "Slap",
      "params": [
        {
          "paramId": 0,
          "value": 0.0
        },
        {
          "paramId": 1,
          "value": 0.5
        },
        {
          "paramId": 2,
          "value": 0.5
        },
        {
          "paramId": 3,
          "value": 0.5
        },
        {
          "paramId": 4,
          "value": 0.0
        },
        {
          "paramId": 5,
          "value": 0.0
        },
        {
          "paramId": 6,
          "value": 0.0
        },
        {
          "paramId": 7,
          "value": 0.0
        },
        {
          "paramId": 8,
          "value": 0.0
        }
      ],
      "pos": [
        104,
        1
      ]
    },
    {
      "plugin": "Bogaudio",
      "version": "0.6.10",
      "model": "Bogaudio-SampleHold",
      "params": [
        {
          "paramId": 0,
          "value": 0.0
        },
        {
          "paramId": 1,
          "value": 0.0
        }
      ],
      "pos": [
        75,
        1
      ]
    },
    {
      "plugin": "Bogaudio",
      "version": "0.6.10",
      "model": "Bogaudio-SampleHold",
      "params": [
        {
          "paramId": 0,
          "value": 0.0
        },
        {
          "paramId": 1,
          "value": 0.0
        }
      ],
      "pos": [
        54,
        1
      ]
    },
    {
      "plugin": "ML_modules",
      "version": "0.6.2",
      "model": "Constants",
      "params": [],
      "pos": [
        28,
        0
      ]
    },
    {
      "plugin": "Fundamental",
      "version": "0.6.2",
      "model": "SequentialSwitch2",
      "params": [
        {
          "paramId": 0,
          "value": 2.0
        }
      ],
      "pos": [
        34,
        0
      ]
    },
    {
      "plugin": "ImpromptuModular",
      "version": "0.6.11",
      "model": "Gate-Seq-64",
      "params": [
        {
          "paramId": 0,
          "value": 0.0
        },
        {
          "paramId": 1,
          "value": 0.0
        },
        {
          "paramId": 2,
          "value": 0.0
        },
        {
          "paramId": 3,
          "value": 0.0
        },
        {
          "paramId": 4,
          "value": 0.0
        },
        {
          "paramId": 5,
          "value": 0.0
        },
        {
          "paramId": 6,
          "value": 0.0
        },
        {
          "paramId": 7,
          "value": 0.0
        },
        {
          "paramId": 8,
          "value": 0.0
        },
        {
          "paramId": 9,
          "value": 0.0
        },
        {
          "paramId": 10,
          "value": 0.0
        },
        {
          "paramId": 11,
          "value": 0.0
        },
        {
          "paramId": 12,
          "value": 0.0
        },
        {
          "paramId": 13,
          "value": 0.0
        },
        {
          "paramId": 14,
          "value": 0.0
        },
        {
          "paramId": 15,
          "value": 0.0
        },
        {
          "paramId": 16,
          "value": 0.0
        },
        {
          "paramId": 17,
          "value": 0.0
        },
        {
          "paramId": 18,
          "value": 0.0
        },
        {
          "paramId": 19,
          "value": 0.0
        },
        {
          "paramId": 20,
          "value": 0.0
        },
        {
          "paramId": 21,
          "value": 0.0
        },
        {
          "paramId": 22,
          "value": 0.0
        },
        {
          "paramId": 23,
          "value": 0.0
        },
        {
          "paramId": 24,
          "value": 0.0
        },
        {
          "paramId": 25,
          "value": 0.0
        },
        {
          "paramId": 26,
          "value": 0.0
        },
        {
          "paramId": 27,
          "value": 0.0
        },
        {
          "paramId": 28,
          "value": 0.0
        },
        {
          "paramId": 29,
          "value": 0.0
        },
        {
          "paramId": 30,
          "value": 0.0
        },
        {
          "paramId": 31,
          "value": 0.0
        },
        {
          "paramId": 32,
          "value": 0.0
        },
        {
          "paramId": 33,
          "value": 0.0
        },
        {
          "paramId": 34,
          "value": 0.0
        },
        {
          "paramId": 35,
          "value": 0.0
        },
        {
          "paramId": 36,
          "value": 0.0
        },
        {
          "paramId": 37,
          "value": 0.0
        },
        {
          "paramId": 38,
          "value": 0.0
        },
        {
          "paramId": 39,
          "value": 0.0
        },
        {
          "paramId": 40,
          "value": 0.0
        },
        {
          "paramId": 41,
          "value": 0.0
        },
        {
          "paramId": 42,
          "value": 0.0
        },
        {
          "paramId": 43,
          "value": 0.0
        },
        {
          "paramId": 44,
          "value": 0.0
        },
        {
          "paramId": 45,
          "value": 0.0
        },
        {
          "paramId": 46,
          "value": 0.0
        },
        {
          "paramId": 47,
          "value": 0.0
        },
        {
          "paramId": 48,
          "value": 0.0
        },
        {
          "paramId": 49,
          "value": 0.0
        },
        {
          "paramId": 50,
          "value": 0.0
        },
        {
          "paramId": 51,
          "value": 0.0
        },
        {
          "paramId": 52,
          "value": 0.0
        },
        {
          "paramId": 53,
          "value": 0.0
        },
        {
          "paramId": 54,
          "value": 0.0
        },
        {
          "paramId": 55,
          "value": 0.0
        },
        {
          "paramId": 56,
          "value": 0.0
        },
        {
          "paramId": 57,
          "value": 0.0
        },
        {
          "paramId": 58,
          "value": 0.0
        },
        {
          "paramId": 59,
          "value": 0.0
        },
        {
          "paramId": 60,
          "value": 0.0
        },
        {
          "paramId": 61,
          "value": 0.0
        },
        {
          "paramId": 62,
          "value": 0.0
        },
        {
          "paramId": 63,
          "value": 0.0
        },
        {
          "paramId": 78,
          "value": 0.0
        },
        {
          "paramId": 77,
          "value": 0.0
        },
        {
          "paramId": 76,
          "value": 0.0
        },
        {
          "paramId": 79,
          "value": 0.0
        },
        {
          "paramId": 80,
          "value": 0.0
        },
        {
          "paramId": 81,
          "value": 0.0
        },
        {
          "paramId": 82,
          "value": 0.0
        },
        {
          "paramId": 83,
          "value": 0.0
        },
        {
          "paramId": 70,
          "value": 0.0
        },
        {
          "paramId": 69,
          "value": 0.0
        },
        {
          "paramId": 72,
          "value": 0.0
        },
        {
          "paramId": 65,
          "value": 0.0
        },
        {
          "paramId": 64,
          "value": 0.0
        },
        {
          "paramId": 67,
          "value": 0.0
        },
        {
          "paramId": 68,
          "value": 0.0
        },
        {
          "paramId": 71,
          "value": 1.0
        },
        {
          "paramId": 66,
          "value": 1.0
        },
        {
          "paramId": 73,
          "value": 2.0
        }
      ],
      "data": {
        "panelTheme": 0,
        "expansion": 1,
        "autoseq": false,
        "pulsesPerStep": 1,
        "running": true,
        "runModeSeq2": [
          0,
          0,
          0,
          0,
          0,
          0,
          0,
          0,
          0,
          0,
          0,
          0,
          0,
          0,
          0,
          0
        ],
        "runModeSong": 0,
        "sequence": 0,
        "lengths": [
          32,
          32,
          32,
          32,
          32,
          32,
          32,
          32,
          32,
          32,
          32,
          32,
          32,
          32,
          32,
          32
        ],
        "phrase2": [
          0,
          0,
          0,
          0,
          0,
          0,
          0,
          0,
          0,
          0,
          0,
          0,
          0,
          0,
          0,
          0,
          0,
          0,
          0,
          0,
          0,
          0,
          0,
          0,
          0,
          0,
          0,
          0,
          0,
          0,
          0,
          0,
          0,
          0,
          0,
          0,
          0,
          0,
          0,
          0,
          0,
          0,
          0,
          0,
          0,
          0,
          0,
          0,
          0,
          0,
          0,
          0,
          0,
          0,
          0,
          0,
          0,
          0,
          0,
          0,
          0,
          0,
          0,
          0
        ],
        "phrases": 4,
        "attributes": [
          562,
          818,
          562,
          50,
          50,
          50,
          562,
          50,
          562,
          818,
          562,
          562,
          50,
          562,
          818,
          562,
          50,
          562,
          562,
          50,
          562,
          818,
          562,
          562,
          50,
          50,
          562,
          50,
          50,
          562,
          818,
          562,
          50,
          50,
          50,
          562,
          562,
          562,
          562,
          50,
          50,
          562,
          50,
          562,
          50,
          50,
          562,
          562,
          50,
          562,
          50,
          50,
          562,
          50,
          50,
          50,
          562,
          50,
          50,
          50,
          50,
          562,
          50,
          562,
          50,
          50,
          50,
          50,
          50,
          50,
          50,
          50,
          50,
          50,
          50,
          50,
          50,
          50,
          50,
          50,
          50,
          50,
          50,
          50,
          50,
          50,
          50,
          50,
          50,
          50,
          50,
          50,
          50,
          50,
          50,
          50,
          50,
          50,
          50,
          50,
          50,
          50,
          50,
          50,
          50,
          50,
          50,
          50,
          50,
          50,
          50,
          50,
          50,
          50,
          50,
          50,
          50,
          50,
          50,
          50,
          50,
          50,
          50,
          50,
          50,
          50,
          50,
          50,
          50,
          50,
          50,
          50,
          50,
          50,
          50,
          50,
          50,
          50,
          50,
          50,
          50,
          50,
          50,
          50,
          50,
          50,
          50,
          50,
          50,
          50,
          50,
          50,
          50,
          50,
          50,
          50,
          50,
          50,
          50,
          50,
          50,
          50,
          50,
          50,
          50,
          50,
          50,
          50,
          50,
          50,
          50,
          50,
          50,
          50,
          50,
          50,
          50,
          50,
          50,
          50,
          50,
          50,
          50,
          50,
          50,
          50,
          50,
          50,
          50,
          50,
          50,
          50,
          50,
          50,
          50,
          50,
          50,
          50,
          50,
          50,
          50,
          50,
          50,
          50,
          50,
          50,
          50,
          50,
          50,
          50,
          50,
          50,
          50,
          50,
          50,
          50,
          50,
          50,
          50,
          50,
          50,
          50,
          50,
          50,
          50,
          50,
          50,
          50,
          50,
          50,
          50,
          50,
          50,
          50,
          50,
          50,
          50,
          50,
          50,
          50,
          50,
          50,
          50,
          50,
          50,
          50,
          50,
          50,
          50,
          50,
          50,
          50,
          50,
          50,
          50,
          50,
          50,
          50,
          50,
          50,
          50,
          50,
          50,
          50,
          50,
          50,
          50,
          50,
          50,
          50,
          50,
          50,
          50,
          50,
          50,
          50,
          50,
          50,
          50,
          50,
          50,
          50,
          50,
          50,
          50,
          50,
          50,
          50,
          50,
          50,
          50,
          50,
          50,
          50,
          50,
          50,
          50,
          50,
          50,
          50,
          50,
          50,
          50,
          50,
          50,
          50,
          50,
          50,
          50,
          50,
          50,
          50,
          50,
          50,
          50,
          50,
          50,
          50,
          50,
          50,
          50,
          50,
          50,
          50,
          50,
          50,
          50,
          50,
          50,
          50,
          50,
          50,
          50,
          50,
          50,
          50,
          50,
          50,
          50,
          50,
          50,
          50,
          50,
          50,
          50,
          50,
          50,
          50,
          50,
          50,
          50,
          50,
          50,
          50,
          50,
          50,
          50,
          50,
          50,
          50,
          50,
          50,
          50,
          50,
          50,
          50,
          50,
          50,
          50,
          50,
          50,
          50,
          50,
          50,
          50,
          50,
          50,
          50,
          50,
          50,
          50,
          50,
          50,
          50,
          50,
          50,
          50,
          50,
          50,
          50,
          50,
          50,
          50,
          50,
          50,
          50,
          50,
          50,
          50,
          50,
          50,
          50,
          50,
          50,
          50,
          50,
          50,
          50,
          50,
          50,
          50,
          50,
          50,
          50,
          50,
          50,
          50,
          50,
          50,
          50,
          50,
          50,
          50,
          50,
          50,
          50,
          50,
          50,
          50,
          50,
          50,
          50,
          50,
          50,
          50,
          50,
          50,
          50,
          50,
          50,
          50,
          50,
          50,
          50,
          50,
          50,
          50,
          50,
          50,
          50,
          50,
          50,
          50,
          50,
          50,
          50,
          50,
          50,
          50,
          50,
          50,
          50,
          50,
          50,
          50,
          50,
          50,
          50,
          50,
          50,
          50,
          50,
          50,
          50,
          50,
          50,
          50,
          50,
          50,
          50,
          50,
          50,
          50,
          50,
          50,
          50,
          50,
          50,
          50,
          50,
          50,
          50,
          50,
          50,
          50,
          50,
          50,
          50,
          50,
          50,
          50,
          50,
          50,
          50,
          50,
          50,
          50,
          50,
          50,
          50,
          50,
          50,
          50,
          50,
          50,
          50,
          50,
          50,
          50,
          50,
          50,
          50,
          50,
          50,
          50,
          50,
          50,
          50,
          50,
          50,
          50,
          50,
          50,
          50,
          50,
          50,
          50,
          50,
          50,
          50,
          50,
          50,
          50,
          50,
          50,
          50,
          50,
          50,
          50,
          50,
          50,
          50,
          50,
          50,
          50,
          50,
          50,
          50,
          50,
          50,
          50,
          50,
          50,
          50,
          50,
          50,
          50,
          50,
          50,
          50,
          50,
          50,
          50,
          50,
          50,
          50,
          50,
          50,
          50,
          50,
          50,
          50,
          50,
          50,
          50,
          50,
          50,
          50,
          50,
          50,
          50,
          50,
          50,
          50,
          50,
          50,
          50,
          50,
          50,
          50,
          50,
          50,
          50,
          50,
          50,
          50,
          50,
          50,
          50,
          50,
          50,
          50,
          50,
          50,
          50,
          50,
          50,
          50,
          50,
          50,
          50,
          50,
          50,
          50,
          50,
          50,
          50,
          50,
          50,
          50,
          50,
          50,
          50,
          50,
          50,
          50,
          50,
          50,
          50,
          50,
          50,
          50,
          50,
          50,
          50,
          50,
          50,
          50,
          50,
          50,
          50,
          50,
          50,
          50,
          50,
          50,
          50,
          50,
          50,
          50,
          50,
          50,
          50,
          50,
          50,
          50,
          50,
          50,
          50,
          50,
          50,
          50,
          50,
          50,
          50,
          50,
          50,
          50,
          50,
          50,
          50,
          50,
          50,
          50,
          50,
          50,
          50,
          50,
          50,
          50,
          50,
          50,
          50,
          50,
          50,
          50,
          50,
          50,
          50,
          50,
          50,
          50,
          50,
          50,
          50,
          50,
          50,
          50,
          50,
          50,
          50,
          50,
          50,
          50,
          50,
          50,
          50,
          50,
          50,
          50,
          50,
          50,
          50,
          50,
          50,
          50,
          50,
          50,
          50,
          50,
          50,
          50,
          50,
          50,
          50,
          50,
          50,
          50,
          50,
          50,
          50,
          50,
          50,
          50,
          50,
          50,
          50,
          50,
          50,
          50,
          50,
          50,
          50,
          50,
          50,
          50,
          50,
          50,
          50,
          50,
          50,
          50,
          50,
          50,
          50,
          50,
          50,
          50,
          50,
          50,
          50,
          50,
          50,
          50,
          50,
          50,
          50,
          50,
          50,
          50,
          50,
          50,
          50,
          50,
          50,
          50,
          50,
          50,
          50,
          50,
          50,
          50,
          50,
          50,
          50,
          50,
          50,
          50,
          50,
          50,
          50,
          50,
          50,
          50,
          50,
          50,
          50,
          50,
          50,
          50,
          50,
          50,
          50,
          50,
          50,
          50,
          50,
          50,
          50,
          50,
          50,
          50,
          50,
          50,
          50,
          50,
          50,
          50,
          50,
          50,
          50,
          50,
          50,
          50,
          50,
          50,
          50,
          50,
          50,
          50,
          50,
          50,
          50,
          50,
          50,
          50,
          50,
          50,
          50,
          50,
          50,
          50,
          50,
          50,
          50,
          50,
          50,
          50,
          50,
          50,
          50,
          50,
          50,
          50,
          50,
          50,
          50,
          50,
          50,
          50,
          50,
          50,
          50,
          50,
          50,
          50,
          50,
          50,
          50,
          50,
          50,
          50,
          50,
          50,
          50,
          50,
          50,
          50,
          50,
          50,
          50,
          50,
          50,
          50,
          50,
          50,
          50,
          50,
          50,
          50,
          50,
          50,
          50,
          50,
          50,
          50,
          50,
          50,
          50,
          50,
          50,
          50,
          50,
          50,
          50,
          50,
          50,
          50,
          50,
          50,
          50,
          50,
          50,
          50,
          50,
          50,
          50,
          50,
          50,
          50,
          50,
          50,
          50,
          50,
          50,
          50,
          50,
          50,
          50,
          50,
          50,
          50,
          50,
          50,
          50,
          50,
          50,
          50,
          50,
          50,
          50,
          50,
          50,
          50,
          50,
          50,
          50,
          50,
          50,
          50,
          50,
          50,
          50,
          50,
          50,
          50,
          50,
          50,
          50,
          50,
          50,
          50,
          50,
          50,
          50,
          50,
          50,
          50,
          50,
          50,
          50,
          50,
          50,
          50,
          50,
          50,
          50,
          50,
          50,
          50,
          50,
          50,
          50,
          50,
          50,
          50,
          50,
          50,
          50,
          50,
          50,
          50,
          50,
          50,
          50,
          50,
          50,
          50,
          50,
          50,
          50,
          50,
          50,
          50,
          50,
          50,
          50,
          50,
          50,
          50,
          50,
          50,
          50,
          50
        ],
        "resetOnRun": false,
        "stepIndexEdit": 30,
        "phraseIndexEdit": 0
      },
      "pos": [
        5,
        2
      ]
    },
    {
      "plugin": "KlirrFactoryFree",
      "version": "0.6.2",
      "model": "ClockMultiplier",
      "params": [
        {
          "paramId": 3,
          "value": 1.0
        },
        {
          "paramId": 4,
          "value": 1.0
        },
        {
          "paramId": 5,
          "value": 1.0
        },
        {
          "paramId": 6,
          "value": 1.0
        },
        {
          "paramId": 7,
          "value": 1.0
        },
        {
          "paramId": 8,
          "value": 1.0
        },
        {
          "paramId": 9,
          "value": 1.0
        },
        {
          "paramId": 10,
          "value": 1.0
        },
        {
          "paramId": 11,
          "value": 1.0
        },
        {
          "paramId": 12,
          "value": 1.0
        },
        {
          "paramId": 13,
          "value": 1.0
        },
        {
          "paramId": 14,
          "value": 1.0
        },
        {
          "paramId": 15,
          "value": 1.0
        },
        {
          "paramId": 16,
          "value": 1.0
        },
        {
          "paramId": 17,
          "value": 1.0
        },
        {
          "paramId": 18,
          "value": 1.0
        },
        {
          "paramId": 0,
          "value": 2.0
        },
        {
          "paramId": 1,
          "value": 1.0
        }
      ],
      "pos": [
        0,
        2
      ]
    },
    {
      "plugin": "VultModulesFree",
      "version": "0.6.15",
      "model": "Trummor2",
      "params": [
        {
          "paramId": 0,
          "value": 0.0169999953
        },
        {
          "paramId": 1,
          "value": 0.155000031
        },
        {
          "paramId": 2,
          "value": 0.0
        },
        {
          "paramId": 5,
          "value": 0.0
        },
        {
          "paramId": 3,
          "value": 0.0
        },
        {
          "paramId": 4,
          "value": 0.0
        },
        {
          "paramId": 6,
          "value": 0.0329999998
        },
        {
          "paramId": 7,
          "value": 0.200000003
        },
        {
          "paramId": 8,
          "value": 0.400000006
        },
        {
          "paramId": 9,
          "value": 0.0
        },
        {
          "paramId": 10,
          "value": 0.0
        },
        {
          "paramId": 11,
          "value": 0.699999988
        },
        {
          "paramId": 23,
          "value": 0.831999958
        },
        {
          "paramId": 12,
          "value": -0.100000001
        },
        {
          "paramId": 14,
          "value": 0.996999979
        },
        {
          "paramId": 13,
          "value": 0.0
        },
        {
          "paramId": 15,
          "value": 0.949999988
        },
        {
          "paramId": 16,
          "value": 0.0
        },
        {
          "paramId": 18,
          "value": 0.0
        },
        {
          "paramId": 19,
          "value": 0.0500000007
        },
        {
          "paramId": 20,
          "value": 0.0500000007
        },
        {
          "paramId": 17,
          "value": 0.0
        },
        {
          "paramId": 22,
          "value": 0.0
        },
        {
          "paramId": 21,
          "value": 0.0
        },
        {
          "paramId": 25,
          "value": 0.0
        },
        {
          "paramId": 26,
          "value": 0.497999907
        },
        {
          "paramId": 27,
          "value": 0.0
        },
        {
          "paramId": 28,
          "value": 0.0
        },
        {
          "paramId": 29,
          "value": 0.0
        },
        {
          "paramId": 30,
          "value": 0.0
        },
        {
          "paramId": 31,
          "value": 0.0
        },
        {
          "paramId": 32,
          "value": 0.0
        }
      ],
      "data": {
        "mod_a": 0,
        "mod_b": 20,
        "mod_c": 0,
        "mod_d": 0
      },
      "pos": [
        33,
        2
      ]
    },
    {
      "plugin": "Bogaudio",
      "version": "0.6.10",
      "model": "Bogaudio-FMOp",
      "params": [
        {
          "paramId": 0,
          "value": 0.0
        },
        {
          "paramId": 1,
          "value": 0.0
        },
        {
          "paramId": 2,
          "value": 0.0
        },
        {
          "paramId": 3,
          "value": 0.316229999
        },
        {
          "paramId": 4,
          "value": 1.0
        },
        {
          "paramId": 5,
          "value": 0.316229999
        },
        {
          "paramId": 6,
          "value": 0.0
        },
        {
          "paramId": 7,
          "value": 0.782999933
        },
        {
          "paramId": 8,
          "value": 1.0
        },
        {
          "paramId": 9,
          "value": 1.0
        },
        {
          "paramId": 10,
          "value": 0.0
        },
        {
          "paramId": 11,
          "value": 0.0
        }
      ],
      "data": {
        "linearLevel": false
      },
      "pos": [
        75,
        2
      ]
    },
    {
      "plugin": "Bogaudio",
      "version": "0.6.10",
      "model": "Bogaudio-FMOp",
      "params": [
        {
          "paramId": 0,
          "value": 0.0
        },
        {
          "paramId": 1,
          "value": 0.0
        },
        {
          "paramId": 2,
          "value": 0.00150000001
        },
        {
          "paramId": 3,
          "value": 0.316229999
        },
        {
          "paramId": 4,
          "value": 1.0
        },
        {
          "paramId": 5,
          "value": 0.316229999
        },
        {
          "paramId": 6,
          "value": 0.0
        },
        {
          "paramId": 7,
          "value": 0.786000013
        },
        {
          "paramId": 8,
          "value": 1.0
        },
        {
          "paramId": 9,
          "value": 1.0
        },
        {
          "paramId": 10,
          "value": 0.0
        },
        {
          "paramId": 11,
          "value": 0.0
        }
      ],
      "data": {
        "linearLevel": false
      },
      "pos": [
        65,
        2
      ]
    },
    {
      "plugin": "ML_modules",
      "version": "0.6.2",
      "model": "Quantum",
      "params": [
        {
          "paramId": 0,
          "value": 0.0
        },
        {
          "paramId": 1,
          "value": 0.0
        },
        {
          "paramId": 2,
          "value": 0.0
        },
        {
          "paramId": 3,
          "value": 0.0
        },
        {
          "paramId": 4,
          "value": 0.0
        },
        {
          "paramId": 5,
          "value": 0.0
        },
        {
          "paramId": 6,
          "value": 0.0
        },
        {
          "paramId": 7,
          "value": 0.0
        },
        {
          "paramId": 8,
          "value": 0.0
        },
        {
          "paramId": 9,
          "value": 0.0
        },
        {
          "paramId": 10,
          "value": 0.0
        },
        {
          "paramId": 11,
          "value": 0.0
        }
      ],
      "data": {
        "scale": [
          1,
          0,
          0,
          1,
          0,
          1,
          0,
          1,
          0,
          0,
          1,
          0
        ],
        "mode": 3
      },
      "pos": [
        53,
        2
      ]
    },
    {
      "plugin": "ML_modules",
      "version": "0.6.2",
      "model": "ShiftRegister",
      "params": [],
      "pos": [
        61,
        2
      ]
    },
    {
      "plugin": "21kHz",
      "version": "0.6.1",
      "model": "kHzPalmLoop",
      "params": [
        {
          "paramId": 0,
          "value": 7.0
        },
        {
          "paramId": 1,
          "value": 0.0
        },
        {
          "paramId": 2,
          "value": 0.0
        },
        {
          "paramId": 3,
          "value": 0.0
        },
        {
          "paramId": 4,
          "value": 0.0
        }
      ],
      "pos": [
        85,
        2
      ]
    },
    {
      "plugin": "VultModulesFree",
      "version": "0.6.15",
      "model": "Tangents",
      "params": [
        {
          "paramId": 0,
          "value": 0.303874969
        },
        {
          "paramId": 1,
          "value": 0.403499961
        },
        {
          "paramId": 2,
          "value": 0.167999998
        },
        {
          "paramId": 3,
          "value": 0.0
        },
        {
          "paramId": 4,
          "value": 0.600000024
        },
        {
          "paramId": 5,
          "value": 0.0
        }
      ],
      "pos": [
        93,
        2
      ]
    },
    {
      "plugin": "Bogaudio",
      "version": "0.6.10",
      "model": "Bogaudio-ADSR",
      "params": [
        {
          "paramId": 0,
          "value": 0.578999996
        },
        {
          "paramId": 1,
          "value": 0.316229999
        },
        {
          "paramId": 2,
          "value": 1.0
        },
        {
          "paramId": 3,
          "value": 0.511229992
        },
        {
          "paramId": 4,
          "value": 0.0
        }
      ],
      "pos": [
        103,
        2
      ]
    }
  ],
  "wires": [
    {
      "color": "#0986ad",
      "outputModuleId": 3,
      "outputId": 2,
      "inputModuleId": 0,
      "inputId": 0
    },
    {
      "color": "#c9b70e",
      "outputModuleId": 3,
      "outputId": 3,
      "inputModuleId": 0,
      "inputId": 1
    },
    {
      "color": "#c91847",
      "outputModuleId": 1,
      "outputId": 0,
      "inputModuleId": 6,
      "inputId": 5
    },
    {
      "color": "#0c8e15",
      "outputModuleId": 1,
      "outputId": 1,
      "inputModuleId": 6,
      "inputId": 6
    },
    {
      "color": "#c91847",
      "outputModuleId": 2,
      "outputId": 1,
      "inputModuleId": 5,
      "inputId": 0
    },
    {
      "color": "#c91847",
      "outputModuleId": 6,
      "outputId": 1,
      "inputModuleId": 3,
      "inputId": 2
    },
    {
      "color": "#0c8e15",
      "outputModuleId": 6,
      "outputId": 2,
      "inputModuleId": 3,
      "inputId": 3
    },
    {
      "color": "#0c8e15",
      "outputModuleId": 7,
      "outputId": 1,
      "inputModuleId": 1,
      "inputId": 1
    },
    {
      "color": "#0986ad",
      "outputModuleId": 7,
      "outputId": 0,
      "inputModuleId": 1,
      "inputId": 0
    },
    {
      "color": "#c9b70e",
      "outputModuleId": 5,
      "outputId": 0,
      "inputModuleId": 4,
      "inputId": 0
    },
    {
      "color": "#0986ad",
      "outputModuleId": 5,
      "outputId": 1,
      "inputModuleId": 8,
      "inputId": 0
    },
    {
      "color": "#c9b70e",
      "outputModuleId": 4,
      "outputId": 14,
      "inputModuleId": 11,
      "inputId": 0
    },
    {
      "color": "#c91847",
      "outputModuleId": 11,
      "outputId": 0,
      "inputModuleId": 12,
      "inputId": 0
    },
    {
      "color": "#0c8e15",
      "outputModuleId": 12,
      "outputId": 0,
      "inputModuleId": 18,
      "inputId": 1
    },
    {
      "color": "#0986ad",
      "outputModuleId": 12,
      "outputId": 1,
      "inputModuleId": 17,
      "inputId": 1
    },
    {
      "color": "#c9b70e",
      "outputModuleId": 12,
      "outputId": 2,
      "inputModuleId": 17,
      "inputId": 3
    },
    {
      "color": "#c91847",
      "outputModuleId": 2,
      "outputId": 2,
      "inputModuleId": 12,
      "inputId": 1
    },
    {
      "color": "#0c8e15",
      "outputModuleId": 9,
      "outputId": 0,
      "inputModuleId": 10,
      "inputId": 5
    },
    {
      "color": "#0986ad",
      "outputModuleId": 13,
      "outputId": 0,
      "inputModuleId": 14,
      "inputId": 5
    },
    {
      "color": "#c9b70e",
      "outputModuleId": 15,
      "outputId": 0,
      "inputModuleId": 16,
      "inputId": 5
    },
    {
      "color": "#c91847",
      "outputModuleId": 10,
      "outputId": 0,
      "inputModuleId": 7,
      "inputId": 2
    },
    {
      "color": "#0c8e15",
      "outputModuleId": 14,
      "outputId": 0,
      "inputModuleId": 7,
      "inputId": 5
    },
    {
      "color": "#0986ad",
      "outputModuleId": 16,
      "outputId": 0,
      "inputModuleId": 7,
      "inputId": 8
    },
    {
      "color": "#c9b70e",
      "outputModuleId": 8,
      "outputId": 0,
      "inputModuleId": 10,
      "inputId": 0
    },
    {
      "color": "#c91847",
      "outputModuleId": 8,
      "outputId": 1,
      "inputModuleId": 14,
      "inputId": 0
    },
    {
      "color": "#0c8e15",
      "outputModuleId": 8,
      "outputId": 2,
      "inputModuleId": 16,
      "inputId": 0
    },
    {
      "color": "#0986ad",
      "outputModuleId": 8,
      "outputId": 0,
      "inputModuleId": 18,
      "inputId": 0
    },
    {
      "color": "#c9b70e",
      "outputModuleId": 18,
      "outputId": 0,
      "inputModuleId": 9,
      "inputId": 0
    },
    {
      "color": "#c91847",
      "outputModuleId": 17,
      "outputId": 0,
      "inputModuleId": 13,
      "inputId": 0
    },
    {
      "color": "#0c8e15",
      "outputModuleId": 8,
      "outputId": 1,
      "inputModuleId": 17,
      "inputId": 0
    },
    {
      "color": "#0986ad",
      "outputModuleId": 8,
      "outputId": 2,
      "inputModuleId": 17,
      "inputId": 2
    },
    {
      "color": "#c9b70e",
      "outputModuleId": 17,
      "outputId": 1,
      "inputModuleId": 15,
      "inputId": 0
    },
    {
      "color": "#c91847",
      "outputModuleId": 12,
      "outputId": 3,
      "inputModuleId": 9,
      "inputId": 1
    },
    {
      "color": "#0c8e15",
      "outputModuleId": 12,
      "outputId": 4,
      "inputModuleId": 9,
      "inputId": 2
    },
    {
      "color": "#0986ad",
      "outputModuleId": 12,
      "outputId": 5,
      "inputModuleId": 13,
      "inputId": 1
    },
    {
      "color": "#c9b70e",
      "outputModuleId": 12,
      "outputId": 6,
      "inputModuleId": 13,
      "inputId": 2
    },
    {
      "color": "#c91847",
      "outputModuleId": 12,
      "outputId": 7,
      "inputModuleId": 15,
      "inputId": 2
    },
    {
      "color": "#0c8e15",
      "outputModuleId": 2,
      "outputId": 3,
      "inputModuleId": 20,
      "inputId": 0
    },
    {
      "color": "#0986ad",
      "outputModuleId": 19,
      "outputId": 5,
      "inputModuleId": 20,
      "inputId": 3
    },
    {
      "color": "#c9b70e",
      "outputModuleId": 20,
      "outputId": 0,
      "inputModuleId": 11,
      "inputId": 1
    },
    {
      "color": "#c91847",
      "outputModuleId": 2,
      "outputId": 4,
      "inputModuleId": 20,
      "inputId": 1
    },
    {
      "color": "#0c8e15",
      "outputModuleId": 2,
      "outputId": 4,
      "inputModuleId": 8,
      "inputId": 1
    },
    {
      "color": "#0986ad",
      "outputModuleId": 2,
      "outputId": 4,
      "inputModuleId": 21,
      "inputId": 1
    },
    {
      "color": "#c9b70e",
      "outputModuleId": 5,
      "outputId": 2,
      "inputModuleId": 22,
      "inputId": 0
    },
    {
      "color": "#c91847",
      "outputModuleId": 22,
      "outputId": 0,
      "inputModuleId": 21,
      "inputId": 0
    },
    {
      "color": "#0c8e15",
      "outputModuleId": 21,
      "outputId": 0,
      "inputModuleId": 23,
      "inputId": 7
    },
    {
      "color": "#0986ad",
      "outputModuleId": 21,
      "outputId": 2,
      "inputModuleId": 23,
      "inputId": 8
    },
    {
      "color": "#c9b70e",
      "outputModuleId": 23,
      "outputId": 4,
      "inputModuleId": 6,
      "inputId": 8
    },
    {
      "color": "#c91847",
      "outputModuleId": 23,
      "outputId": 5,
      "inputModuleId": 7,
      "inputId": 11
    },
    {
      "color": "#0c8e15",
      "outputModuleId": 4,
      "outputId": 14,
      "inputModuleId": 23,
      "inputId": 4
    },
    {
      "color": "#0986ad",
      "outputModuleId": 4,
      "outputId": 12,
      "inputModuleId": 26,
      "inputId": 0
    },
    {
      "color": "#c9b70e",
      "outputModuleId": 26,
      "outputId": 0,
      "inputModuleId": 27,
      "inputId": 0
    },
    {
      "color": "#c91847",
      "outputModuleId": 27,
      "outputId": 0,
      "inputModuleId": 25,
      "inputId": 4
    },
    {
      "color": "#0c8e15",
      "outputModuleId": 27,
      "outputId": 2,
      "inputModuleId": 24,
      "inputId": 4
    },
    {
      "color": "#0986ad",
      "outputModuleId": 26,
      "outputId": 1,
      "inputModuleId": 27,
      "inputId": 1
    },
    {
      "color": "#c9b70e",
      "outputModuleId": 4,
      "outputId": 2,
      "inputModuleId": 25,
      "inputId": 5
    },
    {
      "color": "#c91847",
      "outputModuleId": 4,
      "outputId": 6,
      "inputModuleId": 24,
      "inputId": 5
    },
    {
      "color": "#0c8e15",
      "outputModuleId": 27,
      "outputId": 1,
      "inputModuleId": 25,
      "inputId": 2
    },
    {
      "color": "#0986ad",
      "outputModuleId": 27,
      "outputId": 3,
      "inputModuleId": 24,
      "inputId": 2
    },
    {
      "color": "#c9b70e",
      "outputModuleId": 25,
      "outputId": 0,
      "inputModuleId": 7,
      "inputId": 14
    },
    {
      "color": "#c91847",
      "outputModuleId": 24,
      "outputId": 0,
      "inputModuleId": 7,
      "inputId": 17
    },
    {
      "color": "#0c8e15",
      "outputModuleId": 28,
      "outputId": 0,
      "inputModuleId": 29,
      "inputId": 0
    },
    {
      "color": "#0986ad",
      "outputModuleId": 20,
      "outputId": 0,
      "inputModuleId": 28,
      "inputId": 1
    },
    {
      "color": "#c9b70e",
      "outputModuleId": 30,
      "outputId": 0,
      "inputModuleId": 29,
      "inputId": 3
    },
    {
      "color": "#c91847",
      "outputModuleId": 2,
      "outputId": 3,
      "inputModuleId": 30,
      "inputId": 0
    },
    {
      "color": "#0c8e15",
      "outputModuleId": 29,
      "outputId": 0,
      "inputModuleId": 7,
      "inputId": 20
    },
    {
      "color": "#0986ad",
      "outputModuleId": 28,
      "outputId": 4,
      "inputModuleId": 7,
      "inputId": 23
    }
  ]
}