{
  "version": "1.1.6",
  "modules": [
    {
      "id": 24,
      "plugin": "ImpromptuModular",
      "version": "1.1.8",
      "model": "Clocked",
      "params": [
        {
          "id": 0,
          "value": 122.0
        },
        {
          "id": 1,
          "value": 9.0
        },
        {
          "id": 2,
          "value": 2.0
        },
        {
          "id": 3,
          "value": 5.0
        },
        {
          "id": 4,
          "value": 0.0
        },
        {
          "id": 5,
          "value": 0.0
        },
        {
          "id": 6,
          "value": 0.0
        },
        {
          "id": 7,
          "value": 0.0
        },
        {
          "id": 8,
          "value": 0.5
        },
        {
          "id": 9,
          "value": 0.5
        },
        {
          "id": 10,
          "value": 0.5
        },
        {
          "id": 11,
          "value": 0.5
        },
        {
          "id": 12,
          "value": 0.0
        },
        {
          "id": 13,
          "value": 0.0
        },
        {
          "id": 14,
          "value": 0.0
        },
        {
          "id": 15,
          "value": 0.0
        },
        {
          "id": 16,
          "value": 0.0
        },
        {
          "id": 17,
          "value": 0.0
        },
        {
          "id": 18,
          "value": 0.0
        },
        {
          "id": 19,
          "value": 0.0
        }
      ],
      "data": {
        "panelTheme": 1,
        "running": true,
        "displayDelayNoteMode": true,
        "bpmDetectionMode": false,
        "resetOnStartStop": 0,
        "ppqn": 4,
        "resetClockOutputsHigh": true,
        "momentaryRunInput": true,
        "clockMaster": false
      },
      "pos": [
        0,
        0
      ]
    },
    {
      "id": 25,
      "plugin": "Core",
      "version": "1.1.6",
      "model": "AudioInterface",
      "params": [],
      "leftModuleId": 126,
      "data": {
        "audio": {
          "driver": 7,
          "offset": -1207959552,
          "maxChannels": 8,
          "sampleRate": 48000,
          "blockSize": 128
        }
      },
      "pos": [
        115,
        0
      ]
    },
    {
      "id": 28,
      "plugin": "Valley",
      "version": "1.0.1",
      "model": "Plateau",
      "params": [
        {
          "id": 0,
          "value": 0.0
        },
        {
          "id": 1,
          "value": 1.0
        },
        {
          "id": 2,
          "value": 0.0
        },
        {
          "id": 3,
          "value": 8.66499901
        },
        {
          "id": 4,
          "value": 10.0
        },
        {
          "id": 5,
          "value": 0.5
        },
        {
          "id": 6,
          "value": 10.0
        },
        {
          "id": 7,
          "value": 0.475708216
        },
        {
          "id": 8,
          "value": 10.0
        },
        {
          "id": 9,
          "value": 7.43499994
        },
        {
          "id": 10,
          "value": 0.0
        },
        {
          "id": 11,
          "value": 0.5
        },
        {
          "id": 12,
          "value": 6.38000059
        },
        {
          "id": 13,
          "value": 0.0
        },
        {
          "id": 14,
          "value": 0.0
        },
        {
          "id": 15,
          "value": 0.0
        },
        {
          "id": 16,
          "value": 0.0
        },
        {
          "id": 17,
          "value": 0.0
        },
        {
          "id": 18,
          "value": 0.0
        },
        {
          "id": 19,
          "value": 0.0
        },
        {
          "id": 20,
          "value": 0.0
        },
        {
          "id": 21,
          "value": 0.0
        },
        {
          "id": 22,
          "value": 0.0
        },
        {
          "id": 23,
          "value": 0.0
        },
        {
          "id": 24,
          "value": 0.0
        },
        {
          "id": 25,
          "value": 0.0
        },
        {
          "id": 26,
          "value": 0.0
        },
        {
          "id": 27,
          "value": 0.0
        },
        {
          "id": 28,
          "value": 0.0
        },
        {
          "id": 29,
          "value": 0.0
        },
        {
          "id": 30,
          "value": 1.0
        }
      ],
      "leftModuleId": 115,
      "rightModuleId": 126,
      "data": {
        "frozen": false,
        "freezeToggle": false,
        "panelStyle": 0,
        "tuned": 0,
        "diffuseInput": 1,
        "preDelayCVSens": 0,
        "inputSensitivity": 0,
        "outputSaturation": 0
      },
      "pos": [
        94,
        0
      ]
    },
    {
      "id": 114,
      "plugin": "MindMeldModular",
      "version": "1.1.9",
      "model": "MixMasterJr",
      "params": [
        {
          "id": 0,
          "value": 1.0
        },
        {
          "id": 1,
          "value": 1.0
        },
        {
          "id": 2,
          "value": 1.0
        },
        {
          "id": 3,
          "value": 1.0
        },
        {
          "id": 4,
          "value": 1.0
        },
        {
          "id": 5,
          "value": 1.0
        },
        {
          "id": 6,
          "value": 1.0
        },
        {
          "id": 7,
          "value": 1.0
        },
        {
          "id": 8,
          "value": 1.0
        },
        {
          "id": 9,
          "value": 1.0
        },
        {
          "id": 10,
          "value": 0.5
        },
        {
          "id": 11,
          "value": 0.5
        },
        {
          "id": 12,
          "value": 0.5
        },
        {
          "id": 13,
          "value": 0.5
        },
        {
          "id": 14,
          "value": 0.5
        },
        {
          "id": 15,
          "value": 0.5
        },
        {
          "id": 16,
          "value": 0.5
        },
        {
          "id": 17,
          "value": 0.5
        },
        {
          "id": 18,
          "value": 0.5
        },
        {
          "id": 19,
          "value": 0.5
        },
        {
          "id": 20,
          "value": 0.0
        },
        {
          "id": 21,
          "value": 0.0
        },
        {
          "id": 22,
          "value": 0.0
        },
        {
          "id": 23,
          "value": 0.0
        },
        {
          "id": 24,
          "value": 0.0
        },
        {
          "id": 25,
          "value": 0.0
        },
        {
          "id": 26,
          "value": 0.0
        },
        {
          "id": 27,
          "value": 0.0
        },
        {
          "id": 28,
          "value": 0.0
        },
        {
          "id": 29,
          "value": 0.0
        },
        {
          "id": 30,
          "value": 0.0
        },
        {
          "id": 31,
          "value": 0.0
        },
        {
          "id": 32,
          "value": 0.0
        },
        {
          "id": 33,
          "value": 0.0
        },
        {
          "id": 34,
          "value": 0.0
        },
        {
          "id": 35,
          "value": 0.0
        },
        {
          "id": 36,
          "value": 0.0
        },
        {
          "id": 37,
          "value": 0.0
        },
        {
          "id": 38,
          "value": 0.0
        },
        {
          "id": 39,
          "value": 0.0
        },
        {
          "id": 40,
          "value": 1.0
        },
        {
          "id": 41,
          "value": 1.0
        },
        {
          "id": 42,
          "value": 0.0
        },
        {
          "id": 43,
          "value": 1.0
        },
        {
          "id": 44,
          "value": 0.0
        },
        {
          "id": 45,
          "value": 0.0
        },
        {
          "id": 46,
          "value": 0.0
        },
        {
          "id": 47,
          "value": 0.0
        },
        {
          "id": 48,
          "value": 0.0
        },
        {
          "id": 49,
          "value": 0.0
        },
        {
          "id": 50,
          "value": 0.0
        },
        {
          "id": 51,
          "value": 0.0
        },
        {
          "id": 52,
          "value": 13.0
        },
        {
          "id": 53,
          "value": 249.879913
        },
        {
          "id": 54,
          "value": 13.0
        },
        {
          "id": 55,
          "value": 13.0
        },
        {
          "id": 56,
          "value": 13.0
        },
        {
          "id": 57,
          "value": 499.590851
        },
        {
          "id": 58,
          "value": 13.0
        },
        {
          "id": 59,
          "value": 13.0
        },
        {
          "id": 60,
          "value": 20010.0
        },
        {
          "id": 61,
          "value": 20010.0
        },
        {
          "id": 62,
          "value": 20010.0
        },
        {
          "id": 63,
          "value": 20010.0
        },
        {
          "id": 64,
          "value": 20010.0
        },
        {
          "id": 65,
          "value": 20010.0
        },
        {
          "id": 66,
          "value": 20010.0
        },
        {
          "id": 67,
          "value": 20010.0
        },
        {
          "id": 68,
          "value": 13.0
        },
        {
          "id": 69,
          "value": 13.0
        },
        {
          "id": 70,
          "value": 20010.0
        },
        {
          "id": 71,
          "value": 20010.0
        }
      ],
      "leftModuleId": 176,
      "rightModuleId": 115,
      "data": {
        "trackLabels": "-01--02--03--04--05--06--07--08-GRP1GRP2",
        "panLawMono": 1,
        "panLawStereo": 1,
        "directOutsMode": 3,
        "directOutsSkipGroupedTracks": 0,
        "auxSendsMode": 3,
        "groupsControlTrackSendLevels": 0,
        "auxReturnsMutedWhenMainSolo": 0,
        "auxReturnsSolosMuteDry": 0,
        "chainMode": 1,
        "colorAndCloak": 117440512,
        "symmetricalFade": false,
        "fadeCvOutsWithVolCv": false,
        "linkBitMask": 0,
        "filterPos": 0,
        "groupedAuxReturnFeedbackProtection": 1,
        "ecoMode": 65535,
        "faders": [
          1.0,
          1.0,
          1.0,
          1.0,
          1.0,
          1.0,
          1.0,
          1.0,
          1.0,
          1.0
        ],
        "momentaryCvButtons": 1,
        "masterFaderScalesSends": 0,
        "linearVolCvInputs": 0,
        "id_t0_gainAdjust": 0.630957186,
        "id_t0_fadeRate": 0.0,
        "id_t0_fadeProfile": 0.0,
        "id_t0_directOutsMode": 3,
        "id_t0_auxSendsMode": 3,
        "id_t0_panLawStereo": 1,
        "id_t0_vuColorThemeLocal": 0,
        "id_t0_filterPos": 1,
        "id_t0_dispColorLocal": 0,
        "id_t0_polyStereo": 0,
        "id_t0_panCvLevel": 1.0,
        "id_t0_stereoWidth": 1.0,
        "id_t0_invertInput": 0,
        "id_t1_gainAdjust": 0.374972641,
        "id_t1_fadeRate": 0.0,
        "id_t1_fadeProfile": 0.0,
        "id_t1_directOutsMode": 3,
        "id_t1_auxSendsMode": 3,
        "id_t1_panLawStereo": 1,
        "id_t1_vuColorThemeLocal": 0,
        "id_t1_filterPos": 1,
        "id_t1_dispColorLocal": 0,
        "id_t1_polyStereo": 0,
        "id_t1_panCvLevel": 1.0,
        "id_t1_stereoWidth": 1.0,
        "id_t1_invertInput": 0,
        "id_t2_gainAdjust": 1.57761168,
        "id_t2_fadeRate": 0.0,
        "id_t2_fadeProfile": 0.0,
        "id_t2_directOutsMode": 3,
        "id_t2_auxSendsMode": 3,
        "id_t2_panLawStereo": 1,
        "id_t2_vuColorThemeLocal": 0,
        "id_t2_filterPos": 1,
        "id_t2_dispColorLocal": 0,
        "id_t2_polyStereo": 0,
        "id_t2_panCvLevel": 0.698001623,
        "id_t2_stereoWidth": 1.0,
        "id_t2_invertInput": 0,
        "id_t3_gainAdjust": 0.398106873,
        "id_t3_fadeRate": 0.0,
        "id_t3_fadeProfile": 0.0,
        "id_t3_directOutsMode": 3,
        "id_t3_auxSendsMode": 3,
        "id_t3_panLawStereo": 1,
        "id_t3_vuColorThemeLocal": 0,
        "id_t3_filterPos": 1,
        "id_t3_dispColorLocal": 0,
        "id_t3_polyStereo": 0,
        "id_t3_panCvLevel": 1.0,
        "id_t3_stereoWidth": 1.0,
        "id_t3_invertInput": 0,
        "id_t4_gainAdjust": 0.306196183,
        "id_t4_fadeRate": 0.0,
        "id_t4_fadeProfile": 0.0,
        "id_t4_directOutsMode": 3,
        "id_t4_auxSendsMode": 3,
        "id_t4_panLawStereo": 1,
        "id_t4_vuColorThemeLocal": 0,
        "id_t4_filterPos": 1,
        "id_t4_dispColorLocal": 0,
        "id_t4_polyStereo": 0,
        "id_t4_panCvLevel": 1.0,
        "id_t4_stereoWidth": 1.0,
        "id_t4_invertInput": 0,
        "id_t5_gainAdjust": 0.320626795,
        "id_t5_fadeRate": 0.0,
        "id_t5_fadeProfile": 0.0,
        "id_t5_directOutsMode": 3,
        "id_t5_auxSendsMode": 3,
        "id_t5_panLawStereo": 1,
        "id_t5_vuColorThemeLocal": 0,
        "id_t5_filterPos": 1,
        "id_t5_dispColorLocal": 0,
        "id_t5_polyStereo": 0,
        "id_t5_panCvLevel": 1.0,
        "id_t5_stereoWidth": 1.0,
        "id_t5_invertInput": 0,
        "id_t6_gainAdjust": 1.0,
        "id_t6_fadeRate": 0.0,
        "id_t6_fadeProfile": 0.0,
        "id_t6_directOutsMode": 3,
        "id_t6_auxSendsMode": 3,
        "id_t6_panLawStereo": 1,
        "id_t6_vuColorThemeLocal": 0,
        "id_t6_filterPos": 1,
        "id_t6_dispColorLocal": 0,
        "id_t6_polyStereo": 0,
        "id_t6_panCvLevel": 1.0,
        "id_t6_stereoWidth": 1.0,
        "id_t6_invertInput": 0,
        "id_t7_gainAdjust": 1.0,
        "id_t7_fadeRate": 0.0,
        "id_t7_fadeProfile": 0.0,
        "id_t7_directOutsMode": 3,
        "id_t7_auxSendsMode": 3,
        "id_t7_panLawStereo": 1,
        "id_t7_vuColorThemeLocal": 0,
        "id_t7_filterPos": 1,
        "id_t7_dispColorLocal": 0,
        "id_t7_polyStereo": 0,
        "id_t7_panCvLevel": 1.0,
        "id_t7_stereoWidth": 1.0,
        "id_t7_invertInput": 0,
        "id_g0_fadeRate": 0.0,
        "id_g0_fadeProfile": 0.0,
        "id_g0_directOutsMode": 3,
        "id_g0_auxSendsMode": 3,
        "id_g0_panLawStereo": 1,
        "id_g0_vuColorThemeLocal": 0,
        "id_g0_filterPos": 1,
        "id_g0_dispColorLocal": 0,
        "id_g0_panCvLevel": 1.0,
        "id_g0_stereoWidth": 1.0,
        "id_g1_fadeRate": 0.0,
        "id_g1_fadeProfile": 0.0,
        "id_g1_directOutsMode": 3,
        "id_g1_auxSendsMode": 3,
        "id_g1_panLawStereo": 1,
        "id_g1_vuColorThemeLocal": 0,
        "id_g1_filterPos": 1,
        "id_g1_dispColorLocal": 0,
        "id_g1_panCvLevel": 1.0,
        "id_g1_stereoWidth": 1.0,
        "dcBlock": false,
        "clipping": 0,
        "fadeRate": 0.0,
        "fadeProfile": 0.0,
        "vuColorThemeLocal": 0,
        "dispColorLocal": 0,
        "dimGain": 0.251190007,
        "masterLabel": "MASTER"
      },
      "pos": [
        28,
        0
      ]
    },
    {
      "id": 115,
      "plugin": "MindMeldModular",
      "version": "1.1.9",
      "model": "AuxExpanderJr",
      "params": [
        {
          "id": 0,
          "value": 0.0
        },
        {
          "id": 1,
          "value": 0.0
        },
        {
          "id": 2,
          "value": 0.0
        },
        {
          "id": 3,
          "value": 0.0
        },
        {
          "id": 4,
          "value": 0.0
        },
        {
          "id": 5,
          "value": 0.0
        },
        {
          "id": 6,
          "value": 0.0
        },
        {
          "id": 7,
          "value": 0.0
        },
        {
          "id": 8,
          "value": 0.32550016
        },
        {
          "id": 9,
          "value": 0.0
        },
        {
          "id": 10,
          "value": 0.0
        },
        {
          "id": 11,
          "value": 0.0
        },
        {
          "id": 12,
          "value": 0.244500026
        },
        {
          "id": 13,
          "value": 0.0
        },
        {
          "id": 14,
          "value": 0.0
        },
        {
          "id": 15,
          "value": 0.0
        },
        {
          "id": 16,
          "value": 0.511500299
        },
        {
          "id": 17,
          "value": 0.0
        },
        {
          "id": 18,
          "value": 0.0
        },
        {
          "id": 19,
          "value": 0.0
        },
        {
          "id": 20,
          "value": 1.0
        },
        {
          "id": 21,
          "value": 0.0
        },
        {
          "id": 22,
          "value": 0.0
        },
        {
          "id": 23,
          "value": 0.0
        },
        {
          "id": 24,
          "value": 0.0
        },
        {
          "id": 25,
          "value": 0.0
        },
        {
          "id": 26,
          "value": 0.0
        },
        {
          "id": 27,
          "value": 0.0
        },
        {
          "id": 28,
          "value": 0.0
        },
        {
          "id": 29,
          "value": 0.0
        },
        {
          "id": 30,
          "value": 0.0
        },
        {
          "id": 31,
          "value": 0.0
        },
        {
          "id": 32,
          "value": 0.0
        },
        {
          "id": 33,
          "value": 0.0
        },
        {
          "id": 34,
          "value": 0.0
        },
        {
          "id": 35,
          "value": 0.0
        },
        {
          "id": 36,
          "value": 0.0
        },
        {
          "id": 37,
          "value": 0.0
        },
        {
          "id": 38,
          "value": 0.0
        },
        {
          "id": 39,
          "value": 0.0
        },
        {
          "id": 40,
          "value": 0.0
        },
        {
          "id": 41,
          "value": 0.0
        },
        {
          "id": 42,
          "value": 0.0
        },
        {
          "id": 43,
          "value": 0.0
        },
        {
          "id": 44,
          "value": 0.0
        },
        {
          "id": 45,
          "value": 0.0
        },
        {
          "id": 46,
          "value": 0.0
        },
        {
          "id": 47,
          "value": 0.0
        },
        {
          "id": 48,
          "value": 0.0
        },
        {
          "id": 49,
          "value": 0.0
        },
        {
          "id": 50,
          "value": 0.0
        },
        {
          "id": 51,
          "value": 0.0
        },
        {
          "id": 52,
          "value": 0.0
        },
        {
          "id": 53,
          "value": 0.0
        },
        {
          "id": 54,
          "value": 0.0
        },
        {
          "id": 55,
          "value": 0.0
        },
        {
          "id": 56,
          "value": 0.0
        },
        {
          "id": 57,
          "value": 0.0
        },
        {
          "id": 58,
          "value": 0.0
        },
        {
          "id": 59,
          "value": 0.0
        },
        {
          "id": 60,
          "value": 0.0
        },
        {
          "id": 61,
          "value": 0.0
        },
        {
          "id": 62,
          "value": 1.0
        },
        {
          "id": 63,
          "value": 1.0
        },
        {
          "id": 64,
          "value": 1.0
        },
        {
          "id": 65,
          "value": 1.0
        },
        {
          "id": 66,
          "value": 0.5
        },
        {
          "id": 67,
          "value": 0.5
        },
        {
          "id": 68,
          "value": 0.5
        },
        {
          "id": 69,
          "value": 0.5
        },
        {
          "id": 70,
          "value": 1.0
        },
        {
          "id": 71,
          "value": 1.0
        },
        {
          "id": 72,
          "value": 1.0
        },
        {
          "id": 73,
          "value": 1.0
        }
      ],
      "leftModuleId": 114,
      "rightModuleId": 28,
      "data": {
        "directOutsModeLocal": 50529027,
        "panLawStereoLocal": 16843009,
        "vuColorThemeLocal": 0,
        "dispColorAuxLocal": [
          0,
          0,
          0,
          0
        ],
        "auxFadeRatesAndProfiles": [
          0.0,
          0.0,
          0.0,
          0.0,
          0.0,
          0.0,
          0.0,
          0.0
        ],
        "auxLabels": "VerbAUXBAUXCAUXD",
        "id_x0_hpfCutoffFreq": 198.556,
        "id_x0_lpfCutoffFreq": 20010.0,
        "id_x0_stereoWidth": 1.0,
        "id_x1_hpfCutoffFreq": 13.0,
        "id_x1_lpfCutoffFreq": 20010.0,
        "id_x1_stereoWidth": 1.0,
        "id_x2_hpfCutoffFreq": 13.0,
        "id_x2_lpfCutoffFreq": 20010.0,
        "id_x2_stereoWidth": 1.0,
        "id_x3_hpfCutoffFreq": 13.0,
        "id_x3_lpfCutoffFreq": 20010.0,
        "id_x3_stereoWidth": 1.0,
        "panCvLevels": [
          1.0,
          1.0,
          1.0,
          1.0
        ]
      },
      "pos": [
        64,
        0
      ]
    },
    {
      "id": 126,
      "plugin": "MindMeldModular",
      "version": "1.1.9",
      "model": "BassMaster",
      "params": [
        {
          "id": 0,
          "value": 120.0
        },
        {
          "id": 1,
          "value": 0.0
        },
        {
          "id": 2,
          "value": 0.0
        },
        {
          "id": 3,
          "value": 1.0
        },
        {
          "id": 4,
          "value": 0.0
        },
        {
          "id": 5,
          "value": 0.0
        },
        {
          "id": 6,
          "value": 0.0
        },
        {
          "id": 7,
          "value": 0.0
        },
        {
          "id": 8,
          "value": 0.0
        },
        {
          "id": 9,
          "value": 0.0
        },
        {
          "id": 10,
          "value": 1.0
        }
      ],
      "leftModuleId": 28,
      "rightModuleId": 25,
      "data": {
        "miscSettings": 0
      },
      "pos": [
        106,
        0
      ]
    },
    {
      "id": 156,
      "plugin": "az",
      "version": "1.0.0",
      "model": "modulo",
      "params": [
        {
          "id": 0,
          "value": 0.0
        },
        {
          "id": 1,
          "value": 0.0
        },
        {
          "id": 2,
          "value": 1.0
        },
        {
          "id": 3,
          "value": 0.0
        },
        {
          "id": 4,
          "value": 0.0
        },
        {
          "id": 5,
          "value": 1.0
        },
        {
          "id": 6,
          "value": 0.0
        },
        {
          "id": 7,
          "value": 0.0
        },
        {
          "id": 8,
          "value": 0.0
        },
        {
          "id": 9,
          "value": 0.0
        },
        {
          "id": 10,
          "value": 0.0
        },
        {
          "id": 11,
          "value": 0.0
        },
        {
          "id": 12,
          "value": 0.0
        },
        {
          "id": 13,
          "value": 0.0
        },
        {
          "id": 14,
          "value": 1.0
        },
        {
          "id": 15,
          "value": 0.0
        },
        {
          "id": 16,
          "value": 0.0
        },
        {
          "id": 17,
          "value": 0.0
        },
        {
          "id": 18,
          "value": 0.0
        },
        {
          "id": 19,
          "value": 0.0
        },
        {
          "id": 20,
          "value": 0.0
        },
        {
          "id": 21,
          "value": 0.0
        },
        {
          "id": 22,
          "value": 1.0
        },
        {
          "id": 23,
          "value": 0.0
        },
        {
          "id": 24,
          "value": 0.0
        },
        {
          "id": 25,
          "value": 0.0
        },
        {
          "id": 26,
          "value": 0.0
        },
        {
          "id": 27,
          "value": 0.0
        },
        {
          "id": 28,
          "value": 0.0
        },
        {
          "id": 29,
          "value": 1.0
        },
        {
          "id": 30,
          "value": 0.0
        },
        {
          "id": 31,
          "value": 0.0
        },
        {
          "id": 32,
          "value": 0.0
        },
        {
          "id": 33,
          "value": 1.0
        },
        {
          "id": 34,
          "value": 0.0
        },
        {
          "id": 35,
          "value": 0.0
        },
        {
          "id": 36,
          "value": 0.0
        },
        {
          "id": 37,
          "value": 4.0
        },
        {
          "id": 38,
          "value": 0.0
        },
        {
          "id": 39,
          "value": 5.0
        },
        {
          "id": 40,
          "value": 1.0
        },
        {
          "id": 41,
          "value": 1.0
        },
        {
          "id": 42,
          "value": 0.0
        }
      ],
      "rightModuleId": 157,
      "pos": [
        0,
        1
      ]
    },
    {
      "id": 157,
      "plugin": "LifeFormModular",
      "version": "1.1",
      "model": "ComplexOsc",
      "params": [
        {
          "id": 0,
          "value": 0.0
        },
        {
          "id": 1,
          "value": 0.0
        },
        {
          "id": 2,
          "value": 0.0
        },
        {
          "id": 3,
          "value": -1.0
        },
        {
          "id": 4,
          "value": 0.0
        },
        {
          "id": 5,
          "value": 0.0
        },
        {
          "id": 6,
          "value": 0.18900001
        },
        {
          "id": 7,
          "value": 0.110999972
        },
        {
          "id": 8,
          "value": 0.0569999963
        },
        {
          "id": 9,
          "value": 0.128999993
        },
        {
          "id": 10,
          "value": 0.264000088
        },
        {
          "id": 11,
          "value": 0.0
        },
        {
          "id": 12,
          "value": 0.272999972
        },
        {
          "id": 13,
          "value": 0.0
        },
        {
          "id": 14,
          "value": 0.0
        },
        {
          "id": 15,
          "value": 0.0
        },
        {
          "id": 16,
          "value": 0.0
        },
        {
          "id": 17,
          "value": 0.0
        },
        {
          "id": 18,
          "value": 0.0
        },
        {
          "id": 19,
          "value": 0.627000272
        }
      ],
      "leftModuleId": 156,
      "rightModuleId": 158,
      "pos": [
        18,
        1
      ]
    },
    {
      "id": 158,
      "plugin": "Fundamental",
      "version": "1.4.0",
      "model": "VCA-1",
      "params": [
        {
          "id": 0,
          "value": 1.0
        },
        {
          "id": 1,
          "value": 1.0
        }
      ],
      "leftModuleId": 157,
      "rightModuleId": 159,
      "pos": [
        36,
        1
      ]
    },
    {
      "id": 159,
      "plugin": "NYSTHI",
      "version": "1.0.13",
      "model": "AttackDecay",
      "params": [
        {
          "id": 0,
          "value": 0.0
        },
        {
          "id": 1,
          "value": 0.164499938
        },
        {
          "id": 2,
          "value": 0.0
        },
        {
          "id": 3,
          "value": 1.0
        },
        {
          "id": 4,
          "value": 0.5
        },
        {
          "id": 5,
          "value": 0.0
        }
      ],
      "leftModuleId": 158,
      "rightModuleId": 160,
      "data": {
        "m_looped": false
      },
      "pos": [
        39,
        1
      ]
    },
    {
      "id": 160,
      "plugin": "Valley",
      "version": "1.0.1",
      "model": "Plateau",
      "params": [
        {
          "id": 0,
          "value": 0.0
        },
        {
          "id": 1,
          "value": 0.126000106
        },
        {
          "id": 2,
          "value": 0.0
        },
        {
          "id": 3,
          "value": 7.33000088
        },
        {
          "id": 4,
          "value": 10.0
        },
        {
          "id": 5,
          "value": 0.5
        },
        {
          "id": 6,
          "value": 10.0
        },
        {
          "id": 7,
          "value": 0.549950004
        },
        {
          "id": 8,
          "value": 10.0
        },
        {
          "id": 9,
          "value": 7.7349987
        },
        {
          "id": 10,
          "value": 0.0
        },
        {
          "id": 11,
          "value": 0.5
        },
        {
          "id": 12,
          "value": 6.45199871
        },
        {
          "id": 13,
          "value": 0.0
        },
        {
          "id": 14,
          "value": 0.0
        },
        {
          "id": 15,
          "value": 0.0
        },
        {
          "id": 16,
          "value": 0.0
        },
        {
          "id": 17,
          "value": 0.0
        },
        {
          "id": 18,
          "value": 0.0
        },
        {
          "id": 19,
          "value": 0.0
        },
        {
          "id": 20,
          "value": 0.0
        },
        {
          "id": 21,
          "value": 0.0
        },
        {
          "id": 22,
          "value": 0.0
        },
        {
          "id": 23,
          "value": 0.0
        },
        {
          "id": 24,
          "value": 0.0
        },
        {
          "id": 25,
          "value": 0.0
        },
        {
          "id": 26,
          "value": 0.0
        },
        {
          "id": 27,
          "value": 0.0
        },
        {
          "id": 28,
          "value": 0.0
        },
        {
          "id": 29,
          "value": 0.0
        },
        {
          "id": 30,
          "value": 1.0
        }
      ],
      "leftModuleId": 159,
      "rightModuleId": 161,
      "data": {
        "frozen": false,
        "freezeToggle": false,
        "panelStyle": 0,
        "tuned": 0,
        "diffuseInput": 1,
        "preDelayCVSens": 0,
        "inputSensitivity": 0,
        "outputSaturation": 0
      },
      "pos": [
        41,
        1
      ]
    },
    {
      "id": 161,
      "plugin": "MM_Tools",
      "version": "1.0.2",
      "model": "SHEight",
      "params": [
        {
          "id": 0,
          "value": 120.0
        },
        {
          "id": 1,
          "value": 17.6500034
        },
        {
          "id": 2,
          "value": 16.7500019
        },
        {
          "id": 3,
          "value": 14.3500023
        },
        {
          "id": 4,
          "value": 13.0000057
        },
        {
          "id": 5,
          "value": 14.050004
        },
        {
          "id": 6,
          "value": 15.8499947
        },
        {
          "id": 7,
          "value": 17.1000023
        },
        {
          "id": 8,
          "value": 100.0
        },
        {
          "id": 9,
          "value": 1.0
        },
        {
          "id": 10,
          "value": 1.0
        },
        {
          "id": 11,
          "value": 1.0
        },
        {
          "id": 12,
          "value": 1.0
        },
        {
          "id": 13,
          "value": 1.0
        },
        {
          "id": 14,
          "value": 1.0
        },
        {
          "id": 15,
          "value": 1.0
        },
        {
          "id": 16,
          "value": 1.0
        },
        {
          "id": 17,
          "value": -10.0
        },
        {
          "id": 18,
          "value": -10.0
        },
        {
          "id": 19,
          "value": -10.0
        },
        {
          "id": 20,
          "value": -10.0
        },
        {
          "id": 21,
          "value": -10.0
        },
        {
          "id": 22,
          "value": -10.0
        },
        {
          "id": 23,
          "value": -10.0
        },
        {
          "id": 24,
          "value": -5.0
        },
        {
          "id": 25,
          "value": 5.0
        },
        {
          "id": 26,
          "value": 5.0
        },
        {
          "id": 27,
          "value": 5.0
        },
        {
          "id": 28,
          "value": 5.0
        },
        {
          "id": 29,
          "value": 5.0
        },
        {
          "id": 30,
          "value": 5.0
        },
        {
          "id": 31,
          "value": 5.0
        },
        {
          "id": 32,
          "value": 5.0
        },
        {
          "id": 33,
          "value": 0.0
        },
        {
          "id": 34,
          "value": 0.0
        },
        {
          "id": 35,
          "value": 0.0
        },
        {
          "id": 36,
          "value": 0.0
        },
        {
          "id": 37,
          "value": 0.0
        },
        {
          "id": 38,
          "value": 0.0
        },
        {
          "id": 39,
          "value": 0.0
        },
        {
          "id": 40,
          "value": 0.0
        },
        {
          "id": 41,
          "value": 0.0
        }
      ],
      "leftModuleId": 160,
      "rightModuleId": 162,
      "pos": [
        53,
        1
      ]
    },
    {
      "id": 162,
      "plugin": "squinkylabs-plug1",
      "version": "1.0.10",
      "model": "squinkylabs-slew4",
      "params": [
        {
          "id": 0,
          "value": 3.37500072
        },
        {
          "id": 1,
          "value": 3.61500025
        },
        {
          "id": 2,
          "value": 0.5
        }
      ],
      "leftModuleId": 161,
      "rightModuleId": 164,
      "pos": [
        69,
        1
      ]
    },
    {
      "id": 164,
      "plugin": "SurgeRack",
      "version": "1.7.1",
      "model": "SurgeDistort",
      "params": [
        {
          "id": 0,
          "value": 0.5
        },
        {
          "id": 1,
          "value": 0.461538464
        },
        {
          "id": 2,
          "value": 0.400000006
        },
        {
          "id": 3,
          "value": 1.0
        },
        {
          "id": 4,
          "value": 0.605000675
        },
        {
          "id": 5,
          "value": 0.600500643
        },
        {
          "id": 6,
          "value": 0.00499999989
        },
        {
          "id": 7,
          "value": 0.5
        },
        {
          "id": 8,
          "value": 0.461538464
        },
        {
          "id": 9,
          "value": 0.400000006
        },
        {
          "id": 10,
          "value": 0.808040857
        },
        {
          "id": 11,
          "value": 0.5
        },
        {
          "id": 12,
          "value": 1.0
        },
        {
          "id": 13,
          "value": 1.0
        },
        {
          "id": 14,
          "value": 0.0
        },
        {
          "id": 15,
          "value": 0.0
        },
        {
          "id": 16,
          "value": 0.0
        },
        {
          "id": 17,
          "value": 0.0
        },
        {
          "id": 18,
          "value": 0.0
        },
        {
          "id": 19,
          "value": 0.0
        },
        {
          "id": 20,
          "value": 0.0
        },
        {
          "id": 21,
          "value": 0.0
        },
        {
          "id": 22,
          "value": 0.0
        },
        {
          "id": 23,
          "value": 0.0
        },
        {
          "id": 24,
          "value": 0.0
        },
        {
          "id": 25,
          "value": 0.0
        },
        {
          "id": 26,
          "value": 1.0
        }
      ],
      "leftModuleId": 162,
      "data": {
        "comment": "No Comment",
        "buildInfo": "os:win pluggit:a6bc1cb surgegit:5270cfb9 buildtime=Aug 10 2020 18:27:04"
      },
      "pos": [
        77,
        1
      ]
    },
    {
      "id": 165,
      "plugin": "Fundamental",
      "version": "1.4.0",
      "model": "SEQ3",
      "params": [
        {
          "id": 0,
          "value": 2.0
        },
        {
          "id": 1,
          "value": 0.0
        },
        {
          "id": 2,
          "value": 0.0
        },
        {
          "id": 3,
          "value": 8.0
        },
        {
          "id": 4,
          "value": 0.0
        },
        {
          "id": 5,
          "value": 0.88499999
        },
        {
          "id": 6,
          "value": 2.14499998
        },
        {
          "id": 7,
          "value": 0.810000062
        },
        {
          "id": 8,
          "value": 3.16499996
        },
        {
          "id": 9,
          "value": 0.600000024
        },
        {
          "id": 10,
          "value": 0.930000007
        },
        {
          "id": 11,
          "value": 1.875
        },
        {
          "id": 12,
          "value": 2.95499992
        },
        {
          "id": 13,
          "value": 2.29500008
        },
        {
          "id": 14,
          "value": 0.945000052
        },
        {
          "id": 15,
          "value": 0.645000041
        },
        {
          "id": 16,
          "value": 2.44500017
        },
        {
          "id": 17,
          "value": 0.975000083
        },
        {
          "id": 18,
          "value": 2.35500026
        },
        {
          "id": 19,
          "value": 0.779999971
        },
        {
          "id": 20,
          "value": 1.2750001
        },
        {
          "id": 21,
          "value": 3.55500031
        },
        {
          "id": 22,
          "value": 0.900000036
        },
        {
          "id": 23,
          "value": 1.93500006
        },
        {
          "id": 24,
          "value": 3.90000033
        },
        {
          "id": 25,
          "value": 0.915000081
        },
        {
          "id": 26,
          "value": 1.53000021
        },
        {
          "id": 27,
          "value": 3.49500012
        },
        {
          "id": 28,
          "value": 0.0
        },
        {
          "id": 29,
          "value": 0.0
        },
        {
          "id": 30,
          "value": 0.0
        },
        {
          "id": 31,
          "value": 0.0
        },
        {
          "id": 32,
          "value": 0.0
        },
        {
          "id": 33,
          "value": 0.0
        },
        {
          "id": 34,
          "value": 0.0
        },
        {
          "id": 35,
          "value": 0.0
        }
      ],
      "rightModuleId": 166,
      "data": {
        "running": true,
        "gates": [
          1,
          1,
          1,
          1,
          1,
          1,
          1,
          1
        ]
      },
      "pos": [
        0,
        2
      ]
    },
    {
      "id": 166,
      "plugin": "Fundamental",
      "version": "1.4.0",
      "model": "VCMixer",
      "params": [
        {
          "id": 0,
          "value": 0.395999819
        },
        {
          "id": 1,
          "value": 0.838779628
        },
        {
          "id": 2,
          "value": 0.401787609
        },
        {
          "id": 3,
          "value": 0.73271364
        },
        {
          "id": 4,
          "value": 1.0
        }
      ],
      "leftModuleId": 165,
      "rightModuleId": 167,
      "pos": [
        22,
        2
      ]
    },
    {
      "id": 167,
      "plugin": "ML_modules",
      "version": "1.1.2",
      "model": "Quantum",
      "params": [
        {
          "id": 0,
          "value": 0.0
        },
        {
          "id": 1,
          "value": 0.0
        },
        {
          "id": 2,
          "value": 0.0
        },
        {
          "id": 3,
          "value": 0.0
        },
        {
          "id": 4,
          "value": 0.0
        },
        {
          "id": 5,
          "value": 0.0
        },
        {
          "id": 6,
          "value": 0.0
        },
        {
          "id": 7,
          "value": 0.0
        },
        {
          "id": 8,
          "value": 0.0
        },
        {
          "id": 9,
          "value": 0.0
        },
        {
          "id": 10,
          "value": 0.0
        },
        {
          "id": 11,
          "value": 0.0
        }
      ],
      "leftModuleId": 166,
      "rightModuleId": 168,
      "data": {
        "scale": [
          0,
          0,
          1,
          0,
          0,
          1,
          0,
          0,
          0,
          1,
          1,
          0
        ],
        "mode": 1,
        "transpose_select": 1,
        "toggle_mode": 0
      },
      "pos": [
        32,
        2
      ]
    },
    {
      "id": 168,
      "plugin": "VultModulesFree",
      "version": "1.11",
      "model": "Vessek",
      "params": [
        {
          "id": 0,
          "value": 0.0
        },
        {
          "id": 1,
          "value": 0.0
        },
        {
          "id": 2,
          "value": 0.368999928
        },
        {
          "id": 3,
          "value": 0.0
        },
        {
          "id": 4,
          "value": 2.0
        },
        {
          "id": 5,
          "value": 0.0
        },
        {
          "id": 6,
          "value": 0.0
        },
        {
          "id": 7,
          "value": 0.476999998
        },
        {
          "id": 8,
          "value": 0.0
        },
        {
          "id": 9,
          "value": 0.0
        },
        {
          "id": 10,
          "value": 0.5
        },
        {
          "id": 11,
          "value": 0.0
        },
        {
          "id": 12,
          "value": 0.0
        },
        {
          "id": 13,
          "value": 0.0
        },
        {
          "id": 14,
          "value": 0.0
        },
        {
          "id": 15,
          "value": 0.0
        },
        {
          "id": 16,
          "value": 0.0
        },
        {
          "id": 17,
          "value": 0.0
        },
        {
          "id": 18,
          "value": 0.0
        },
        {
          "id": 19,
          "value": 0.0
        },
        {
          "id": 20,
          "value": 0.0
        },
        {
          "id": 21,
          "value": 0.0
        },
        {
          "id": 22,
          "value": 0.0
        },
        {
          "id": 23,
          "value": 0.0
        },
        {
          "id": 24,
          "value": 0.0
        },
        {
          "id": 25,
          "value": 0.0
        },
        {
          "id": 26,
          "value": 0.0
        },
        {
          "id": 27,
          "value": 0.0
        },
        {
          "id": 28,
          "value": 0.0
        },
        {
          "id": 29,
          "value": 0.0
        },
        {
          "id": 30,
          "value": 0.0
        },
        {
          "id": 31,
          "value": 0.0
        },
        {
          "id": 32,
          "value": 0.0
        },
        {
          "id": 33,
          "value": 0.0
        }
      ],
      "leftModuleId": 167,
      "rightModuleId": 169,
      "data": {
        "mod_a": 0,
        "mod_b": 0,
        "mod_c": 0,
        "mod_d": 0,
        "mod_e": 0,
        "mod_f": 0
      },
      "pos": [
        40,
        2
      ]
    },
    {
      "id": 169,
      "plugin": "SurgeRack",
      "version": "1.7.1",
      "model": "SurgeNoise",
      "params": [
        {
          "id": 0,
          "value": -0.200000003
        }
      ],
      "leftModuleId": 168,
      "rightModuleId": 170,
      "data": {
        "comment": "No Comment",
        "buildInfo": "os:win pluggit:a6bc1cb surgegit:5270cfb9 buildtime=Aug 10 2020 18:27:04"
      },
      "pos": [
        60,
        2
      ]
    },
    {
      "id": 170,
      "plugin": "LindenbergResearch",
      "version": "1.3.3",
      "model": "QuickMixer",
      "params": [
        {
          "id": 0,
          "value": 1.0
        },
        {
          "id": 1,
          "value": 0.611200452
        },
        {
          "id": 2,
          "value": 0.0
        },
        {
          "id": 3,
          "value": 0.0
        },
        {
          "id": 4,
          "value": 0.0
        },
        {
          "id": 5,
          "value": 0.0
        },
        {
          "id": 6,
          "value": 0.5
        }
      ],
      "leftModuleId": 169,
      "rightModuleId": 171,
      "gestaltID": 1,
      "gradient": true,
      "patina": false,
      "patina_i_x": true,
      "patina_i_y": true,
      "patina_a_x": 919.869934,
      "patina_a_y": 177.680115,
      "overlay": false,
      "overlay_r": 0.86201632,
      "overlay_g": 0.0934791565,
      "overlay_b": 0.972331226,
      "overlay_a": 0.140717387,
      "pos": [
        63,
        2
      ]
    },
    {
      "id": 171,
      "plugin": "NYSTHI",
      "version": "1.0.13",
      "model": "AttackDecay",
      "params": [
        {
          "id": 0,
          "value": 0.0
        },
        {
          "id": 1,
          "value": 0.150999829
        },
        {
          "id": 2,
          "value": 0.0
        },
        {
          "id": 3,
          "value": 1.0
        },
        {
          "id": 4,
          "value": 0.5
        },
        {
          "id": 5,
          "value": 0.0
        }
      ],
      "leftModuleId": 170,
      "rightModuleId": 172,
      "data": {
        "m_looped": false
      },
      "pos": [
        70,
        2
      ]
    },
    {
      "id": 172,
      "plugin": "VultModulesFree",
      "version": "1.11",
      "model": "Tangents",
      "params": [
        {
          "id": 0,
          "value": 0.341497272
        },
        {
          "id": 1,
          "value": 0.488999724
        },
        {
          "id": 2,
          "value": 0.0
        },
        {
          "id": 3,
          "value": 0.0
        },
        {
          "id": 4,
          "value": 1.074
        },
        {
          "id": 5,
          "value": 0.0
        },
        {
          "id": 6,
          "value": 0.0
        }
      ],
      "leftModuleId": 171,
      "rightModuleId": 174,
      "pos": [
        72,
        2
      ]
    },
    {
      "id": 173,
      "plugin": "AlrightDevices",
      "version": "1.0.3",
      "model": "Chronoblob2",
      "params": [
        {
          "id": 0,
          "value": 0.702500463
        },
        {
          "id": 1,
          "value": 0.420499831
        },
        {
          "id": 2,
          "value": 0.348499984
        },
        {
          "id": 3,
          "value": 0.0
        },
        {
          "id": 4,
          "value": 0.0
        },
        {
          "id": 5,
          "value": 0.0
        },
        {
          "id": 6,
          "value": 0.0
        },
        {
          "id": 7,
          "value": 0.0
        },
        {
          "id": 8,
          "value": 1.0
        },
        {
          "id": 9,
          "value": 0.0
        }
      ],
      "leftModuleId": 174,
      "rightModuleId": 175,
      "data": {
        "delay_mode": 2,
        "hold_behavior": 0,
        "sync_prescaler": 6
      },
      "pos": [
        85,
        2
      ]
    },
    {
      "id": 174,
      "plugin": "Fundamental",
      "version": "1.4.0",
      "model": "VCA-1",
      "params": [
        {
          "id": 0,
          "value": 0.337000102
        },
        {
          "id": 1,
          "value": 1.0
        }
      ],
      "leftModuleId": 172,
      "rightModuleId": 173,
      "pos": [
        82,
        2
      ]
    },
    {
      "id": 175,
      "plugin": "VultModulesFree",
      "version": "1.11",
      "model": "Debriatus",
      "params": [
        {
          "id": 0,
          "value": 0.0
        },
        {
          "id": 1,
          "value": 0.0
        },
        {
          "id": 2,
          "value": 0.0
        },
        {
          "id": 3,
          "value": 0.0
        },
        {
          "id": 4,
          "value": 0.0
        },
        {
          "id": 5,
          "value": 0.0
        },
        {
          "id": 6,
          "value": 0.0
        },
        {
          "id": 7,
          "value": 0.0
        }
      ],
      "leftModuleId": 173,
      "pos": [
        97,
        2
      ]
    },
    {
      "id": 176,
      "plugin": "Bogaudio",
      "version": "1.1.33",
      "model": "Bogaudio-Walk",
      "params": [
        {
          "id": 0,
          "value": 0.100000001
        },
        {
          "id": 1,
          "value": 0.0
        },
        {
          "id": 2,
          "value": 1.0
        }
      ],
      "leftModuleId": 183,
      "rightModuleId": 114,
      "data": {
        "poly_input": 0,
        "jump_mode": "jump"
      },
      "pos": [
        25,
        0
      ]
    },
    {
      "id": 177,
      "plugin": "Hora-treasureFree",
      "version": "1.0.2",
      "model": "HiHat",
      "params": [
        {
          "id": 0,
          "value": 0.300000012
        },
        {
          "id": 1,
          "value": 0.349349916
        },
        {
          "id": 2,
          "value": 0.779999971
        },
        {
          "id": 3,
          "value": 0.0
        },
        {
          "id": 4,
          "value": 0.0
        },
        {
          "id": 5,
          "value": 0.0
        },
        {
          "id": 6,
          "value": 4.0
        },
        {
          "id": 7,
          "value": 0.800000012
        },
        {
          "id": 8,
          "value": 1.0
        },
        {
          "id": 9,
          "value": 0.600000024
        },
        {
          "id": 10,
          "value": 0.100000001
        },
        {
          "id": 11,
          "value": 0.0
        }
      ],
      "leftModuleId": 178,
      "rightModuleId": 179,
      "pos": [
        114,
        1
      ]
    },
    {
      "id": 178,
      "plugin": "CountModula",
      "version": "1.11.0",
      "model": "Chances",
      "params": [
        {
          "id": 0,
          "value": 0.5
        },
        {
          "id": 1,
          "value": 1.0
        }
      ],
      "rightModuleId": 177,
      "data": {
        "moduleVersion": 1.10000002,
        "theme": 1
      },
      "pos": [
        110,
        1
      ]
    },
    {
      "id": 179,
      "plugin": "Fundamental",
      "version": "1.4.0",
      "model": "VCA-1",
      "params": [
        {
          "id": 0,
          "value": 0.0
        },
        {
          "id": 1,
          "value": 1.0
        }
      ],
      "leftModuleId": 177,
      "rightModuleId": 180,
      "pos": [
        122,
        1
      ]
    },
    {
      "id": 180,
      "plugin": "AlrightDevices",
      "version": "1.0.3",
      "model": "Chronoblob2",
      "params": [
        {
          "id": 0,
          "value": 0.706999719
        },
        {
          "id": 1,
          "value": 0.270499766
        },
        {
          "id": 2,
          "value": 1.0
        },
        {
          "id": 3,
          "value": 0.0
        },
        {
          "id": 4,
          "value": 0.0
        },
        {
          "id": 5,
          "value": 0.252000153
        },
        {
          "id": 6,
          "value": 0.0
        },
        {
          "id": 7,
          "value": 0.0
        },
        {
          "id": 8,
          "value": 1.0
        },
        {
          "id": 9,
          "value": 0.0
        }
      ],
      "leftModuleId": 179,
      "data": {
        "delay_mode": 1,
        "hold_behavior": 0,
        "sync_prescaler": 6
      },
      "pos": [
        125,
        1
      ]
    },
    {
      "id": 181,
      "plugin": "VultModulesFree",
      "version": "1.11",
      "model": "Tangents",
      "params": [
        {
          "id": 0,
          "value": 0.0
        },
        {
          "id": 1,
          "value": 0.499500066
        },
        {
          "id": 2,
          "value": 0.0
        },
        {
          "id": 3,
          "value": 0.0
        },
        {
          "id": 4,
          "value": 0.600000024
        },
        {
          "id": 5,
          "value": 0.0
        },
        {
          "id": 6,
          "value": 0.0
        }
      ],
      "rightModuleId": 182,
      "pos": [
        124,
        2
      ]
    },
    {
      "id": 182,
      "plugin": "Fundamental",
      "version": "1.4.0",
      "model": "Delay",
      "params": [
        {
          "id": 0,
          "value": 0.666499972
        },
        {
          "id": 1,
          "value": 0.864500105
        },
        {
          "id": 2,
          "value": 1.0
        },
        {
          "id": 3,
          "value": 0.5
        }
      ],
      "leftModuleId": 181,
      "pos": [
        134,
        2
      ]
    },
    {
      "id": 183,
      "plugin": "Bogaudio",
      "version": "1.1.33",
      "model": "Bogaudio-Walk",
      "params": [
        {
          "id": 0,
          "value": 0.208000004
        },
        {
          "id": 1,
          "value": 0.0
        },
        {
          "id": 2,
          "value": 1.0
        }
      ],
      "rightModuleId": 176,
      "data": {
        "poly_input": 0,
        "jump_mode": "jump"
      },
      "pos": [
        22,
        0
      ]
    }
  ],
  "cables": [
    {
      "id": 204,
      "outputModuleId": 115,
      "outputId": 0,
      "inputModuleId": 28,
      "inputId": 0,
      "color": "#c91847"
    },
    {
      "id": 205,
      "outputModuleId": 115,
      "outputId": 4,
      "inputModuleId": 28,
      "inputId": 1,
      "color": "#c91847"
    },
    {
      "id": 206,
      "outputModuleId": 28,
      "outputId": 0,
      "inputModuleId": 115,
      "inputId": 0,
      "color": "#c91847"
    },
    {
      "id": 207,
      "outputModuleId": 28,
      "outputId": 1,
      "inputModuleId": 115,
      "inputId": 1,
      "color": "#c91847"
    },
    {
      "id": 219,
      "outputModuleId": 114,
      "outputId": 2,
      "inputModuleId": 126,
      "inputId": 0,
      "color": "#c91847"
    },
    {
      "id": 220,
      "outputModuleId": 114,
      "outputId": 3,
      "inputModuleId": 126,
      "inputId": 1,
      "color": "#c91847"
    },
    {
      "id": 319,
      "outputModuleId": 126,
      "outputId": 0,
      "inputModuleId": 25,
      "inputId": 0,
      "color": "#c91847"
    },
    {
      "id": 320,
      "outputModuleId": 126,
      "outputId": 1,
      "inputModuleId": 25,
      "inputId": 1,
      "color": "#c91847"
    },
    {
      "id": 384,
      "outputModuleId": 156,
      "outputId": 0,
      "inputModuleId": 157,
      "inputId": 0,
      "color": "#c9b70e"
    },
    {
      "id": 385,
      "outputModuleId": 157,
      "outputId": 0,
      "inputModuleId": 158,
      "inputId": 1,
      "color": "#0c8e15"
    },
    {
      "id": 386,
      "outputModuleId": 159,
      "outputId": 0,
      "inputModuleId": 158,
      "inputId": 0,
      "color": "#c91847"
    },
    {
      "id": 388,
      "outputModuleId": 24,
      "outputId": 1,
      "inputModuleId": 156,
      "inputId": 2,
      "color": "#c9b70e"
    },
    {
      "id": 389,
      "outputModuleId": 24,
      "outputId": 4,
      "inputModuleId": 156,
      "inputId": 3,
      "color": "#0c8e15"
    },
    {
      "id": 390,
      "outputModuleId": 24,
      "outputId": 1,
      "inputModuleId": 159,
      "inputId": 3,
      "color": "#c91847"
    },
    {
      "id": 391,
      "outputModuleId": 158,
      "outputId": 0,
      "inputModuleId": 160,
      "inputId": 0,
      "color": "#0986ad"
    },
    {
      "id": 392,
      "outputModuleId": 160,
      "outputId": 0,
      "inputModuleId": 114,
      "inputId": 0,
      "color": "#c9b70e"
    },
    {
      "id": 393,
      "outputModuleId": 160,
      "outputId": 1,
      "inputModuleId": 114,
      "inputId": 1,
      "color": "#0c8e15"
    },
    {
      "id": 394,
      "outputModuleId": 24,
      "outputId": 0,
      "inputModuleId": 161,
      "inputId": 0,
      "color": "#c91847"
    },
    {
      "id": 395,
      "outputModuleId": 161,
      "outputId": 1,
      "inputModuleId": 162,
      "inputId": 0,
      "color": "#0986ad"
    },
    {
      "id": 396,
      "outputModuleId": 161,
      "outputId": 2,
      "inputModuleId": 162,
      "inputId": 1,
      "color": "#c9b70e"
    },
    {
      "id": 397,
      "outputModuleId": 161,
      "outputId": 3,
      "inputModuleId": 162,
      "inputId": 2,
      "color": "#0c8e15"
    },
    {
      "id": 398,
      "outputModuleId": 161,
      "outputId": 4,
      "inputModuleId": 162,
      "inputId": 3,
      "color": "#c91847"
    },
    {
      "id": 399,
      "outputModuleId": 161,
      "outputId": 5,
      "inputModuleId": 162,
      "inputId": 4,
      "color": "#0986ad"
    },
    {
      "id": 400,
      "outputModuleId": 161,
      "outputId": 6,
      "inputModuleId": 162,
      "inputId": 5,
      "color": "#c9b70e"
    },
    {
      "id": 401,
      "outputModuleId": 161,
      "outputId": 7,
      "inputModuleId": 162,
      "inputId": 6,
      "color": "#0c8e15"
    },
    {
      "id": 404,
      "outputModuleId": 162,
      "outputId": 0,
      "inputModuleId": 157,
      "inputId": 6,
      "color": "#c9b70e"
    },
    {
      "id": 405,
      "outputModuleId": 162,
      "outputId": 1,
      "inputModuleId": 157,
      "inputId": 8,
      "color": "#0c8e15"
    },
    {
      "id": 406,
      "outputModuleId": 162,
      "outputId": 2,
      "inputModuleId": 157,
      "inputId": 7,
      "color": "#c91847"
    },
    {
      "id": 407,
      "outputModuleId": 162,
      "outputId": 3,
      "inputModuleId": 157,
      "inputId": 2,
      "color": "#0986ad"
    },
    {
      "id": 408,
      "outputModuleId": 162,
      "outputId": 4,
      "inputModuleId": 157,
      "inputId": 3,
      "color": "#c9b70e"
    },
    {
      "id": 409,
      "outputModuleId": 162,
      "outputId": 5,
      "inputModuleId": 157,
      "inputId": 5,
      "color": "#0c8e15"
    },
    {
      "id": 410,
      "outputModuleId": 162,
      "outputId": 6,
      "inputModuleId": 157,
      "inputId": 4,
      "color": "#c91847"
    },
    {
      "id": 411,
      "outputModuleId": 160,
      "outputId": 0,
      "inputModuleId": 164,
      "inputId": 0,
      "color": "#0986ad"
    },
    {
      "id": 412,
      "outputModuleId": 160,
      "outputId": 1,
      "inputModuleId": 164,
      "inputId": 1,
      "color": "#c9b70e"
    },
    {
      "id": 413,
      "outputModuleId": 164,
      "outputId": 0,
      "inputModuleId": 114,
      "inputId": 2,
      "color": "#0c8e15"
    },
    {
      "id": 414,
      "outputModuleId": 164,
      "outputId": 1,
      "inputModuleId": 114,
      "inputId": 3,
      "color": "#c91847"
    },
    {
      "id": 415,
      "outputModuleId": 165,
      "outputId": 1,
      "inputModuleId": 166,
      "inputId": 1,
      "color": "#0986ad"
    },
    {
      "id": 416,
      "outputModuleId": 165,
      "outputId": 2,
      "inputModuleId": 166,
      "inputId": 2,
      "color": "#c9b70e"
    },
    {
      "id": 417,
      "outputModuleId": 165,
      "outputId": 3,
      "inputModuleId": 166,
      "inputId": 3,
      "color": "#0c8e15"
    },
    {
      "id": 418,
      "outputModuleId": 166,
      "outputId": 0,
      "inputModuleId": 167,
      "inputId": 0,
      "color": "#c91847"
    },
    {
      "id": 419,
      "outputModuleId": 167,
      "outputId": 0,
      "inputModuleId": 168,
      "inputId": 0,
      "color": "#0986ad"
    },
    {
      "id": 420,
      "outputModuleId": 168,
      "outputId": 0,
      "inputModuleId": 170,
      "inputId": 0,
      "color": "#c9b70e"
    },
    {
      "id": 421,
      "outputModuleId": 169,
      "outputId": 0,
      "inputModuleId": 170,
      "inputId": 1,
      "color": "#0c8e15"
    },
    {
      "id": 422,
      "outputModuleId": 171,
      "outputId": 0,
      "inputModuleId": 170,
      "inputId": 5,
      "color": "#c91847"
    },
    {
      "id": 424,
      "outputModuleId": 24,
      "outputId": 2,
      "inputModuleId": 165,
      "inputId": 1,
      "color": "#c9b70e"
    },
    {
      "id": 425,
      "outputModuleId": 24,
      "outputId": 2,
      "inputModuleId": 171,
      "inputId": 3,
      "color": "#0c8e15"
    },
    {
      "id": 426,
      "outputModuleId": 24,
      "outputId": 4,
      "inputModuleId": 165,
      "inputId": 2,
      "color": "#c91847"
    },
    {
      "id": 427,
      "outputModuleId": 170,
      "outputId": 0,
      "inputModuleId": 172,
      "inputId": 0,
      "color": "#0986ad"
    },
    {
      "id": 428,
      "outputModuleId": 24,
      "outputId": 0,
      "inputModuleId": 173,
      "inputId": 7,
      "color": "#c9b70e"
    },
    {
      "id": 430,
      "outputModuleId": 173,
      "outputId": 0,
      "inputModuleId": 114,
      "inputId": 4,
      "color": "#c91847"
    },
    {
      "id": 429,
      "outputModuleId": 172,
      "outputId": 0,
      "inputModuleId": 174,
      "inputId": 1,
      "color": "#0c8e15"
    },
    {
      "id": 432,
      "outputModuleId": 174,
      "outputId": 0,
      "inputModuleId": 173,
      "inputId": 5,
      "color": "#c9b70e"
    },
    {
      "id": 433,
      "outputModuleId": 173,
      "outputId": 1,
      "inputModuleId": 175,
      "inputId": 0,
      "color": "#0c8e15"
    },
    {
      "id": 434,
      "outputModuleId": 175,
      "outputId": 0,
      "inputModuleId": 173,
      "inputId": 6,
      "color": "#c91847"
    },
    {
      "id": 435,
      "outputModuleId": 176,
      "outputId": 0,
      "inputModuleId": 114,
      "inputId": 28,
      "color": "#0986ad"
    },
    {
      "id": 436,
      "outputModuleId": 24,
      "outputId": 3,
      "inputModuleId": 178,
      "inputId": 0,
      "color": "#c9b70e"
    },
    {
      "id": 437,
      "outputModuleId": 178,
      "outputId": 0,
      "inputModuleId": 177,
      "inputId": 0,
      "color": "#0c8e15"
    },
    {
      "id": 438,
      "outputModuleId": 178,
      "outputId": 1,
      "inputModuleId": 177,
      "inputId": 1,
      "color": "#c91847"
    },
    {
      "id": 439,
      "outputModuleId": 177,
      "outputId": 2,
      "inputModuleId": 114,
      "inputId": 6,
      "color": "#0986ad"
    },
    {
      "id": 440,
      "outputModuleId": 177,
      "outputId": 2,
      "inputModuleId": 179,
      "inputId": 1,
      "color": "#c9b70e"
    },
    {
      "id": 441,
      "outputModuleId": 24,
      "outputId": 0,
      "inputModuleId": 180,
      "inputId": 7,
      "color": "#0c8e15"
    },
    {
      "id": 442,
      "outputModuleId": 179,
      "outputId": 0,
      "inputModuleId": 180,
      "inputId": 5,
      "color": "#c91847"
    },
    {
      "id": 443,
      "outputModuleId": 180,
      "outputId": 0,
      "inputModuleId": 114,
      "inputId": 8,
      "color": "#0986ad"
    },
    {
      "id": 444,
      "outputModuleId": 180,
      "outputId": 1,
      "inputModuleId": 114,
      "inputId": 9,
      "color": "#c9b70e"
    },
    {
      "id": 445,
      "outputModuleId": 177,
      "outputId": 0,
      "inputModuleId": 181,
      "inputId": 0,
      "color": "#0c8e15"
    },
    {
      "id": 446,
      "outputModuleId": 181,
      "outputId": 0,
      "inputModuleId": 182,
      "inputId": 4,
      "color": "#c91847"
    },
    {
      "id": 447,
      "outputModuleId": 182,
      "outputId": 0,
      "inputModuleId": 114,
      "inputId": 10,
      "color": "#0986ad"
    },
    {
      "id": 448,
      "outputModuleId": 183,
      "outputId": 0,
      "inputModuleId": 114,
      "inputId": 31,
      "color": "#c9b70e"
    }
  ]
}